<svg width="151" height="13" viewBox="0 0 151 13" xmlns="http://www.w3.org/2000/svg">
  <path fill="var(--main-color)"
    d="M1.89484 0.686719C3.87553 0.961933 5.32971 1.51236 5.32971 1.96271C5.30463 2.13785 4.70291 2.7133 4.00089 3.2387C2.57178 4.23948 -0.135995 6.89155 0.691382 6.46622C0.967174 6.3161 1.54383 5.84073 1.94498 5.4154C3.12337 4.18944 5.85622 2.23793 7.46083 1.51236C9.31616 0.661699 11.8735 0.561622 13.6787 1.26217C14.3306 1.51236 14.8571 1.81259 14.8069 1.91267C14.7568 2.01275 14.13 2.56318 13.4029 3.11361C12.6758 3.63902 11.3721 4.76489 10.5196 5.59054C8.36342 7.64213 5.63057 9.94392 4.57755 10.5944C4.10118 10.8947 2.97294 11.37 2.07034 11.6703C1.16775 11.9705 0.390518 12.2707 0.315302 12.3458C0.0395093 12.646 2.24585 12.0956 3.14844 11.6452L4.10118 11.1449L5.70579 11.7954C8.08763 12.7461 10.645 12.596 13.0017 11.3951C13.428 11.1699 13.7539 11.2449 14.6314 11.6953C16.1859 12.5209 19.6709 12.5459 21.5262 11.7453L22.8049 11.1949L24.3844 11.8454C25.7634 12.3958 26.2398 12.4709 27.8695 12.3458C29.0228 12.2958 30.2513 12.0205 30.9784 11.6953L32.1818 11.1699L33.2349 11.7203C33.9369 12.0706 34.9147 12.2958 36.1683 12.3708C37.798 12.4709 38.2994 12.3958 39.7285 11.8204L41.3582 11.1699L42.7121 11.7954C44.5423 12.646 46.7988 12.646 49.0804 11.8204L50.7101 11.2199L52.2645 11.8454C53.5933 12.3958 54.0948 12.4709 55.6994 12.3458C56.8276 12.2958 58.0812 12.0205 58.7833 11.7203L59.9366 11.2199L61.5161 11.8454C62.87 12.3958 63.3714 12.4709 64.976 12.3458C66.1043 12.2958 67.3579 12.0205 68.0599 11.7203L69.2132 11.2199L70.7928 11.8454C72.1466 12.3958 72.6481 12.4709 74.2527 12.3458C75.406 12.2707 76.6095 12.0205 77.3115 11.7203L78.4397 11.1949L79.944 11.7954C81.9247 12.621 83.9806 12.621 86.187 11.8204L87.8167 11.2199L89.3711 11.8454C90.6999 12.3958 91.2014 12.4709 92.806 12.3458C93.9593 12.2958 95.1878 12.0205 95.9149 11.6953L97.1184 11.1699L98.1714 11.7453C99.6757 12.5209 103.437 12.5209 105.192 11.7203L106.395 11.1699L107.448 11.7203C109.128 12.571 111.836 12.621 114.017 11.8204L115.772 11.1949L116.9 11.7453C118.655 12.596 121.388 12.646 123.344 11.8454L124.898 11.2199L126.453 11.8454C127.807 12.3958 128.308 12.4709 129.913 12.3458C131.041 12.2958 132.294 12.0205 132.996 11.7203L134.15 11.2199L135.729 11.8454C137.058 12.3958 137.585 12.4709 139.189 12.3708C140.393 12.2958 141.546 12.0456 142.323 11.7203L143.552 11.1699L144.705 11.7203C145.934 12.3208 149.118 12.646 149.82 12.2707C150.07 12.1206 149.444 12.0456 148.165 12.0205C146.159 11.9955 144.078 11.4201 144.279 10.9447C144.329 10.8446 145.382 9.89388 146.611 8.86809C148.967 6.86653 150.472 5.4154 150.146 5.4154C150.045 5.4154 149.093 6.21602 148.04 7.16676C144.153 10.7445 140.894 12.3458 138.211 12.0706C136.782 11.9455 134.952 11.32 134.952 10.9697C134.952 10.8696 135.554 10.3192 136.281 9.76879C136.983 9.19334 138.512 7.86731 139.641 6.81649C140.769 5.74065 142.348 4.33956 143.176 3.68906C144.78 2.41306 147.613 0.936913 148.541 0.886874C148.867 0.861855 149.394 0.761777 149.745 0.63668C150.196 0.486563 150.02 0.436523 149.068 0.536602C148.341 0.58664 147.212 0.861855 146.56 1.16209L145.407 1.66248L144.254 1.11205C142.624 0.311426 139.139 0.311426 137.359 1.11205L136.13 1.6875L134.977 1.11205C133.322 0.286407 129.837 0.286407 128.082 1.11205L126.829 1.66248L125.7 1.11205C124.046 0.286407 120.561 0.286407 118.831 1.11205L117.602 1.6875L116.449 1.11205C114.794 0.311426 111.284 0.286407 109.579 1.08703L108.376 1.63746L107.197 1.08703C105.467 0.286407 102.007 0.311426 100.202 1.11205L98.8985 1.71252L97.8204 1.11205C96.2409 0.286407 92.7558 0.286407 90.9757 1.11205L89.7221 1.66248L88.5939 1.11205C86.9391 0.286407 83.4792 0.311426 81.6489 1.11205L80.3703 1.6875L79.2671 1.11205C77.6876 0.286407 74.2025 0.286407 72.4224 1.11205L71.1939 1.66248L70.0406 1.11205C68.3858 0.286407 65.2017 0.311426 63.221 1.11205L61.7919 1.6875L60.7138 1.11205C59.1343 0.286407 55.6493 0.286407 53.8691 1.11205L52.6155 1.66248L51.4873 1.11205C49.8325 0.286407 46.3475 0.286407 44.5925 1.11205L43.3389 1.66248L42.2106 1.11205C40.5559 0.286407 37.096 0.311426 35.2406 1.11205C34.0873 1.63746 33.9118 1.66248 33.3602 1.33722C31.6052 0.236368 28.2706 0.161309 25.9891 1.13707L24.6853 1.71252L23.6072 1.11205C22.0277 0.286407 18.5677 0.286407 16.6873 1.13707C15.7597 1.53738 15.2582 1.63746 15.0577 1.48734C14.8821 1.33722 14.13 1.03699 13.3778 0.786797C11.6729 0.236368 9.21587 0.386485 7.43576 1.13707L6.13201 1.71252L5.05391 1.13707C4.25161 0.736757 3.42423 0.561622 2.07034 0.511582L0.189941 0.436523L1.89484 0.686719ZM23.1308 1.31221C23.6824 1.53738 24.1337 1.81259 24.1337 1.91267C24.1337 2.01275 23.7075 2.38804 23.2061 2.7133C22.6795 3.06357 21.0749 4.43964 19.6208 5.79069C14.9323 10.094 12.4752 11.6953 9.84267 12.0456C8.46371 12.2457 6.13201 11.8204 5.42999 11.295C4.95363 10.9197 4.95363 10.9197 5.45507 10.5444C6.33259 9.86887 8.915 7.56707 10.645 5.94081C13.6787 3.08859 16.4366 1.33722 18.5928 0.886874C19.7963 0.63668 21.9023 0.836836 23.1308 1.31221ZM32.6331 1.38726C33.6109 1.88765 33.6862 1.73754 31.6303 3.33878C31.1539 3.71408 29.5994 5.09015 28.2205 6.39116C23.9331 10.3442 22.153 11.4701 19.4453 11.9705C17.8156 12.2707 15.534 11.9455 14.7066 11.27C14.2553 10.9197 14.2804 10.8696 15.1078 10.2191C15.5842 9.84385 17.0885 8.51781 18.4424 7.29186C23.2311 2.91345 24.936 1.73754 27.4182 1.03699C29.0478 0.58664 31.3545 0.736757 32.6331 1.38726ZM41.6841 1.31221C42.2357 1.53738 42.687 1.81259 42.687 1.91267C42.687 2.01275 42.2608 2.38804 41.7594 2.7133C41.2328 3.06357 40.0294 4.06435 39.0516 4.96505C34.7392 8.96816 33.4605 9.96894 31.53 10.9447C29.0478 12.1707 26.9669 12.4209 25.0112 11.7453C24.3343 11.4951 23.7576 11.1699 23.7576 11.0448C23.7576 10.8947 24.5599 10.094 25.5127 9.29342C26.4905 8.46777 28.07 7.06668 29.0228 6.14096C34.1124 1.26217 37.8983 -0.188963 41.6841 1.31221ZM51.0611 1.31221C51.5625 1.5624 51.9637 1.83761 51.9637 1.93769C51.9637 2.01275 51.5374 2.38804 51.036 2.73832C50.5095 3.06357 48.6291 4.71485 46.849 6.36614C42.4864 10.4193 39.4277 12.1707 36.6948 12.1707C35.4663 12.1707 32.9089 11.4201 32.9089 11.0448C32.9089 10.8947 33.6109 10.1941 34.4885 9.46855C35.3409 8.76801 36.5444 7.71719 37.1712 7.11672C42.5366 2.03777 45.2193 0.536602 48.604 0.786797C49.4565 0.836836 50.5596 1.08703 51.0611 1.31221ZM60.2374 1.31221C60.789 1.53738 61.2403 1.78758 61.2403 1.88765C61.2403 1.96271 60.789 2.36302 60.2374 2.73832C59.6858 3.13863 58.357 4.2645 57.304 5.26528C56.2259 6.26606 54.8971 7.467 54.3455 7.94237C53.7939 8.41774 53.0668 9.04322 52.7158 9.36848C52.3648 9.69373 51.1363 10.4193 50.008 10.9947C48.1276 11.9205 47.7265 12.0205 46.1219 12.0205C44.2415 12.0205 42.3109 11.4951 42.3109 11.0198C42.3109 10.8696 42.8876 10.2942 43.5645 9.74377C44.2666 9.19334 45.8712 7.74221 47.1749 6.51626C50.8605 3.03855 53.3928 1.36224 55.6994 0.886874C56.9029 0.63668 59.0089 0.836836 60.2374 1.31221ZM69.6394 1.33722C70.1158 1.5624 70.517 1.81259 70.517 1.88765C70.517 1.96271 69.9654 2.43808 69.3386 2.91345C68.6867 3.38882 66.9818 4.88999 65.5276 6.24104C60.9896 10.4193 58.6077 11.8204 55.6493 12.0706C54.0446 12.1957 51.7129 11.5952 51.5374 11.0198C51.4873 10.8696 52.0389 10.2942 52.766 9.74377C53.4931 9.19334 55.3233 7.59209 56.8527 6.16598C61.3406 1.93769 64.0735 0.536602 67.2075 0.786797C68.0599 0.861855 69.1631 1.11205 69.6394 1.33722ZM78.7657 1.31221C79.3423 1.53738 79.7936 1.81259 79.7936 1.91267C79.7936 2.01275 79.3674 2.38804 78.8409 2.73832C78.3144 3.06357 76.9855 4.18944 75.8824 5.21524C72.0464 8.84307 70.6172 9.94392 68.5363 10.9947C66.5807 11.9705 66.2547 12.0456 64.5247 12.0205C62.6945 12.0205 60.7389 11.4701 60.7389 10.9947C60.7389 10.8696 61.1902 10.4193 61.7418 9.99396C62.3184 9.56863 63.8979 8.16754 65.302 6.89155C66.706 5.59054 68.4611 4.03933 69.2383 3.43886C70.6423 2.338 73.0743 1.08703 74.2778 0.836836C75.3057 0.61166 77.6625 0.861855 78.7657 1.31221ZM88.0172 1.28719C88.5939 1.51236 89.0703 1.78758 89.0703 1.88765C89.0703 1.98773 88.5437 2.4631 87.8919 2.93847C87.2149 3.38882 85.5602 4.83995 84.1812 6.11594C79.8187 10.1941 77.4118 11.6953 74.6538 12.0956C73.4253 12.2457 71.0435 11.7954 70.3665 11.295C69.9152 10.9447 69.9152 10.8947 70.3415 10.5694C71.3945 9.74377 73.7763 7.66715 75.5314 6.04089C79.8939 1.96271 82.5515 0.561622 85.5602 0.761777C86.3123 0.811816 87.4155 1.06201 88.0172 1.28719ZM97.344 1.31221C97.9207 1.53738 98.3469 1.81259 98.2968 1.91267C98.2466 2.03777 97.5947 2.61322 96.8175 3.21369C96.0403 3.78913 94.4357 5.21524 93.2573 6.3161C89.2959 10.019 87.0144 11.4701 84.4069 11.9705C82.7772 12.2707 80.4956 11.9455 79.6432 11.295C79.1919 10.9447 79.2169 10.8947 80.0443 10.2442C80.5207 9.86887 81.9247 8.64291 83.1282 7.54205C88.1677 2.93847 90.4743 1.36224 92.7809 0.886874C94.0345 0.63668 96.1155 0.836836 97.344 1.31221ZM106.621 1.31221C107.172 1.53738 107.624 1.81259 107.624 1.91267C107.624 2.01275 107.197 2.38804 106.696 2.73832C106.169 3.08859 104.389 4.61478 102.735 6.14096C98.3469 10.2191 96.0904 11.6202 93.2573 12.0456C91.9786 12.2457 89.6218 11.8204 88.9198 11.27C88.4685 10.9197 88.4936 10.8696 89.321 10.2191C89.7973 9.84385 91.3017 8.51781 92.6556 7.29186C97.4443 2.91345 99.1492 1.73754 101.631 1.03699C103.186 0.61166 105.116 0.711738 106.621 1.31221ZM115.872 1.31221C116.449 1.53738 116.9 1.81259 116.9 1.91267C116.9 2.01275 116.474 2.38804 115.973 2.7133C115.446 3.06357 114.092 4.21446 112.964 5.26528C107.699 10.2191 104.991 11.8954 102.032 12.0706C100.403 12.1957 97.9708 11.5452 97.9708 11.0448C97.9708 10.8947 98.7731 10.1191 99.7259 9.29342C100.704 8.49279 102.158 7.19178 102.985 6.39116C108.426 1.18711 112.036 -0.239002 115.872 1.31221ZM125.174 1.31221C125.726 1.53738 126.177 1.78758 126.177 1.88765C126.177 1.96271 125.726 2.338 125.199 2.7133C124.347 3.31376 123.519 4.06435 119.307 7.9924C116.349 10.7445 112.763 12.3708 110.256 12.0706C108.827 11.9205 107.047 11.27 107.172 10.9447C107.222 10.8446 108.05 10.094 109.003 9.29342C109.98 8.49279 111.61 7.04166 112.638 6.06591C117.803 1.16209 121.388 -0.188963 125.174 1.31221ZM134.4 1.28719C135.002 1.53738 135.453 1.81259 135.403 1.91267C135.353 2.01275 134.451 2.81337 133.398 3.68906C132.345 4.56474 130.389 6.26606 129.035 7.49201C125.525 10.6695 122.617 12.1957 120.185 12.1456C118.981 12.1456 116.524 11.345 116.524 10.9947C116.524 10.8196 116.925 10.3943 117.402 10.044C117.878 9.69373 119.458 8.31766 120.887 6.96661C125.174 2.98851 127.506 1.41228 129.938 0.886874C131.191 0.61166 133.147 0.786797 134.4 1.28719ZM143.878 1.36224C144.354 1.58742 144.705 1.83761 144.68 1.93769C144.63 2.01275 143.928 2.63824 143.075 3.31376C142.248 3.98929 140.543 5.49046 139.315 6.64135C135.353 10.3442 132.896 11.7703 129.963 12.0706C128.509 12.2207 125.801 11.5452 125.801 11.0198C125.801 10.8696 126.603 10.1191 127.556 9.31844C128.534 8.51781 130.038 7.14174 130.941 6.29108C134.325 3.03855 136.607 1.5624 139.189 0.911894C140.393 0.61166 142.8 0.836836 143.878 1.36224Z" />
</svg>