<svg width="25" height="25" viewBox="0 0 25 25" xmlns="http://www.w3.org/2000/svg">
  <path
    d="M12.5195 3.62263C13.6279 3.62263 14.7314 3.6031 15.8398 3.62751C17.2461 3.65681 18.6523 3.71052 20.0537 3.774C20.6348 3.80329 21.2256 3.81794 21.8018 3.93025C23.1738 4.19392 23.9893 5.03865 24.3652 6.37165C24.5654 7.07966 24.6387 7.8072 24.7022 8.53474C24.8731 10.4927 24.8389 12.4508 24.79 14.4088C24.7607 15.566 24.7119 16.733 24.419 17.8658C24.2969 18.3297 24.1553 18.7935 23.8867 19.1988C23.3984 19.9361 22.6953 20.356 21.8359 20.5123C21.0986 20.649 20.3516 20.6636 19.6045 20.6978C18.2227 20.7613 16.8408 20.7906 15.459 20.8248C13.8232 20.8687 12.1875 20.859 10.5566 20.8443C9.2334 20.8297 7.90528 20.8004 6.58203 20.7467C5.46387 20.7027 4.34082 20.6832 3.23731 20.4683C2.62695 20.3511 2.08496 20.0972 1.61621 19.6773C1.17676 19.2769 0.952149 18.7593 0.786133 18.2125C0.429688 17.0406 0.405273 15.8297 0.332031 14.6187C0.249023 13.2027 0.273438 11.7867 0.307617 10.3756C0.336914 9.18415 0.390625 7.98787 0.639649 6.81599C0.786133 6.12263 0.986328 5.43415 1.48926 4.90193C2.10938 4.24763 2.90039 3.93513 3.79395 3.87165C4.86328 3.79841 5.9375 3.74958 7.00684 3.70564C8.84278 3.62751 10.6836 3.6031 12.5195 3.62263ZM16.5772 11.982C16.5576 11.9234 16.5039 11.9136 16.4648 11.8941C15.3174 11.2886 14.165 10.6832 13.0127 10.0777C12.0996 9.59919 11.1865 9.1158 10.2734 8.6324C10.0195 8.50056 10.0147 8.50544 10.0147 8.79841C10.0147 10.9029 10.0147 13.0074 10.0147 15.1168C10.0147 15.1558 10.0147 15.1998 10.0147 15.2388C10.0098 15.3658 10.0586 15.4049 10.1758 15.3414C10.3174 15.2633 10.459 15.1851 10.6055 15.107C12.5293 14.1109 14.458 13.1099 16.3818 12.1138C16.4502 12.0748 16.5381 12.0601 16.5772 11.982Z" />
</svg>