<svg width="114" height="114" viewBox="0 0 114 114" fill="none" xmlns="http://www.w3.org/2000/svg">
<g clip-path="url(#clip0_644_2193)">
<path fill-rule="evenodd" clip-rule="evenodd" d="M9.1318 61.0975C6.2198 65.7682 7.06289 69.0308 8.09471 72.2228L55.3299 104.656L99.171 86.177L95.7769 83.9142L95.0226 80.143C96.2294 78.9777 97.3666 77.8264 98.1339 76.7489C98.3448 75.465 99.3152 73.8013 97.6625 73.4491L47.5995 48.936L13.3755 59.7787L11.7727 61.2872L9.1318 61.0975Z" fill="white" stroke="#FF6600" stroke-width="0.30992"/>
<path fill-rule="evenodd" clip-rule="evenodd" d="M47.8571 47.8879L12.1696 58.8714C12.1696 58.8714 11.7193 60.0206 11.2071 60.2443C10.46 60.5707 8.78422 59.913 8.78422 59.913C7.296 60.602 6.19979 63.599 6.03008 66.363C5.86035 69.1271 6.42419 71.8503 7.33429 72.8693L54.5322 105.738C55.2387 106.137 55.5975 106.015 55.9571 105.894L100.189 87.6399C101.064 87.2443 101.108 86.3064 100.366 85.2961L96.0282 82.2857C96.3778 83.8608 96.6359 85.3475 96.4532 86.2127C87.8145 89.6739 67.7161 97.817 56.274 102.7C55.3839 101.46 55.2843 99.5588 55.1094 97.8814C54.9148 96.0143 55.0997 93.5122 55.8344 92.4043C56.5691 91.2964 57.4586 92.3918 58.0386 92.121C58.5063 91.9025 59.2262 91.4046 59.6156 90.8231C68.5032 87.848 88.0871 79.9377 100.031 75.2903C100.889 74.4085 100.418 73.8589 99.8827 73.3257L47.8571 47.8879ZM47.6821 50.1087L96.3317 74.386L58.3093 88.9066C58.3093 88.9066 57.7885 89.7774 57.3218 89.9441C56.9178 90.0884 56.2995 89.5282 55.8573 89.3753C55.3132 89.1872 54.4067 89.5315 54.0177 90.1378C53.0917 91.5812 52.5317 93.3465 52.2365 95.0294C51.8811 97.0548 52.1639 99.0228 52.7011 100.809L10.2115 71.5734C9.24157 70.9139 8.28859 68.9502 8.41563 66.8818C8.54441 64.7846 9.05837 62.6229 10.4344 61.9589C10.4344 61.9589 11.9876 62.5083 12.4698 62.3631C13.0126 62.1996 13.6698 61.0361 13.6698 61.0361L47.6821 50.1087ZM13.441 63.5188C12.6168 63.864 26.4128 71.9299 33.6597 76.2644C40.6375 80.4383 55.5808 89.2447 56.0202 88.5482C56.4598 87.8511 41.4453 79.5554 34.4949 75.3834C27.4608 71.1609 14.2656 63.1743 13.441 63.5188Z" fill="black"/>
<path fill-rule="evenodd" clip-rule="evenodd" d="M99.0069 75.6852L59.6491 90.7892C59.3474 91.0404 58.4911 91.9898 57.9387 92.1059C57.2889 92.2425 56.6028 91.3823 55.7929 92.3601C55.1127 94.3016 55.0315 95.6345 55.2553 97.4455C55.5488 99.8199 55.6915 100.497 56.4741 102.602L96.3909 86.4098C96.9409 84.6831 96.1303 82.986 95.8701 81.4494C95.7835 80.8775 95.7971 80.3726 96.0638 79.7348C96.3305 79.097 97.2593 78.685 98.2409 77.6056C98.8232 76.9654 98.9513 76.3256 99.0069 75.6852ZM96.7298 77.7206C96.8682 78.4767 95.4988 78.3693 94.8319 79.2081C94.6919 79.3842 94.5849 79.5858 94.4965 79.7956C93.9879 79.9686 92.0355 80.6302 90.9965 81.0144C86.6721 82.6132 78.0429 85.8861 78.1507 86.1456C78.2584 86.4051 86.7311 82.8318 91.0445 81.4247C92.1507 81.0639 93.853 80.5351 94.3195 80.3893C94.1873 80.9607 94.1682 81.504 94.2029 81.7331C94.4147 83.1317 94.6184 84.1069 94.5966 85.0872L57.3262 100.578C56.7831 99.2642 56.4049 98.0195 56.3262 96.6785C56.7463 96.5209 66.2931 92.9389 71.3075 90.816C75.7132 88.9508 84.8958 85.7071 84.7177 85.4431C84.5395 85.1791 75.4234 88.3936 71.0302 90.391C66.3161 92.5344 57.4558 95.7915 56.307 96.1097C56.314 95.2678 56.4392 94.3824 56.7341 93.4077C57.0101 93.4427 58.0613 93.496 58.3424 93.4514C58.9699 93.352 59.4125 92.8054 60.0403 92.1848C61.4403 91.6514 96.7298 77.7206 96.7298 77.7206ZM78.2093 90.158C73.5497 92.0362 61.3389 97.1403 61.3175 97.3768C61.2958 97.6133 73.7773 92.5069 78.3906 90.6288C82.6332 88.9017 93.2962 84.9358 92.5015 84.896C91.7071 84.8562 82.1551 88.5676 78.2093 90.158Z" fill="black"/>
<path fill-rule="evenodd" clip-rule="evenodd" d="M10.8289 42.6186L14.3173 41.6758L51.464 41.3929L92.8528 66.6601L91.1557 67.6029L89.4587 72.5998C89.9458 73.9512 89.9056 76.3571 91.0614 76.371L39.3953 89.0985L8.47156 52.706C8.92923 49.234 7.66323 45.1879 10.8289 42.6186Z" fill="white" stroke="#FF0000" stroke-width="0.30992"/>
<path fill-rule="evenodd" clip-rule="evenodd" d="M51.7697 40.3999L13.7547 40.7686C13.5077 41.1206 12.9177 41.6393 12.6297 41.7041C12.3269 41.7721 11.5059 41.1059 11.0026 41.2999C8.72018 42.1795 8.48626 44.8583 8.09426 46.3436C7.38948 49.0141 8.01781 53.0745 8.82135 54.2811C10.0213 55.6811 37.3995 88.0923 38.4437 89.1227C39.6506 90.313 40.7562 90.4755 42.7688 89.9498C51.7558 87.6026 77.909 81.905 94.4317 77.4079C95.4061 76.8982 95.0055 76.0552 94.2921 75.3788L90.3297 72.9725C90.348 74.0559 90.5022 75.0433 90.8213 76.06C75.4677 79.6011 57.1808 83.5847 41.6085 87.0893C40.254 86.6128 38.8817 84.487 38.7252 83.3789C38.2922 80.3131 38.8695 78.859 39.4586 78.006C40.0452 77.1565 40.4965 76.6424 41.0336 76.3081C41.6271 76.3691 42.505 76.6224 43.0273 76.4268C43.5809 76.2196 43.9684 75.8153 44.3752 75.4373L93.7918 67.7247C94.5596 67.1446 94.0658 66.332 93.6834 65.9851L51.7697 40.3999ZM51.3238 42.6207L89.9777 66.242L43.1926 73.4357C42.6775 73.6988 42.4968 74.2979 42.2676 74.3837C42.0385 74.4695 41.3016 74.2957 40.6801 74.2357C39.3897 74.6153 37.7183 76.9555 37.3114 78.617C36.3807 82.4169 37.0967 84.3756 38.7864 87.0795L10.6701 53.2981C9.99107 52.2643 9.60629 50.5311 10.0576 47.7128C10.2815 46.3146 10.7551 44.962 11.4742 43.8107C11.929 43.8455 12.3341 44.1678 13.093 43.9232C14.0701 43.6081 14.0531 42.8643 14.2867 42.7752L51.3238 42.6207ZM13.7697 45.1318C13.2451 45.6096 22.5552 54.5286 27.1468 59.3078C31.7928 64.1442 40.4716 74.1729 41.1617 73.6417C41.8514 73.1096 32.6344 63.3508 28.0076 58.5377C23.5365 53.8864 14.2945 44.654 13.7708 45.1318H13.7697Z" fill="black"/>
<path fill-rule="evenodd" clip-rule="evenodd" d="M92.4471 67.9359C76.2668 70.2602 52.894 73.7883 44.3862 75.3901C44.0451 75.8586 43.4714 76.265 42.7445 76.4338C42.4696 76.4977 41.7981 76.3698 41.0403 76.3026C39.2493 77.4688 38.4848 79.8679 38.7258 82.0838C39.0343 84.9205 40.1918 86.013 41.7185 87.1046C58.1025 83.4701 74.4854 80.4798 90.8694 76.0646C89.6851 72.3822 90.7978 70.2041 92.4471 67.9359ZM88.9721 69.9672C88.3527 71.1693 88.2508 71.9653 88.4262 73.3151C88.0789 73.3804 84.1917 74.1085 82.1117 74.5151C79.5828 75.0095 74.6653 75.7238 74.6575 76.0901C74.6497 76.4564 79.7738 75.6179 82.2846 75.0985C84.1381 74.715 87.592 74.2993 88.4763 73.6339C88.5232 73.9482 88.5663 74.2476 88.6367 74.6339L42.2175 85.5587C41.6195 85.1964 41.105 84.4863 40.7342 83.7338C41.5304 83.5789 48.9895 82.1305 52.9262 81.5171C57.4581 80.8109 66.4846 78.8641 66.3598 78.5401C66.235 78.216 57.7455 80.3962 52.8536 80.9068C48.7839 81.3316 41.1736 82.9162 40.4494 83.0672C40.3074 82.6682 40.2027 82.2801 40.1806 81.9505C40.0659 80.2388 40.0223 79.0825 41.5223 77.5693C41.8461 77.8328 42.5617 78.005 43.1347 77.8818C43.9678 77.7026 44.35 77.488 44.866 76.9172L88.9721 69.9672ZM83.0595 72.6484C82.242 72.5006 71.2921 74.5735 65.6366 75.4692C57.8608 76.7007 42.2318 78.7462 42.4121 79.2004C42.5914 79.6546 58.187 77.2178 66.027 75.9213C71.9799 74.9369 83.8777 72.7963 83.0606 72.6483L83.0595 72.6484Z" fill="black"/>
<path fill-rule="evenodd" clip-rule="evenodd" d="M50.238 26.4031L9.69718 32.1543C8.32619 35.6915 6.15627 38.7895 9.6029 44.9767L52.0296 77.2209L99.924 62.9841L96.3412 61.0042C96.4276 57.2884 97.3667 54.0383 99.3582 50.0676L50.238 26.4031Z" fill="white" stroke="#FF6600" stroke-width="0.30992"/>
<path fill-rule="evenodd" clip-rule="evenodd" d="M50.2742 25.7578L10.0449 31.0994C7.97876 31.6904 6.79946 36.2064 6.88863 38.937C6.95838 41.0728 8.13514 44.4541 9.47199 45.9328L52.3093 78.512L101.972 64.0853C102.597 63.2722 102.291 62.8315 102.056 62.3625L97.3806 59.5249C97.3806 59.5249 97.491 61.5645 97.3577 62.8978C84.5897 66.249 64.3998 71.7837 52.4617 75.1453C51.7264 74.4067 50.7243 71.555 50.668 69.7265C50.5719 66.6056 51.0461 64.6297 52.2575 63.5348L102.164 52.2975C102.743 51.9222 102.811 50.9978 101.966 50.1808L50.2742 25.7578ZM50.1388 27.4786L97.5596 50.6541L50.1036 61.2124C48.4306 63.2545 48.0108 65.4935 48.0494 67.7353C48.0817 69.6087 48.5911 72.3696 49.487 73.8332L10.8395 44.0273C9.88098 43.1634 9.18394 40.4251 9.18116 39.2024C9.17685 37.3169 9.82084 35.4604 10.9228 33.094L50.1388 27.4786ZM13.0412 34.4571C12.053 34.8889 28.9676 46.9435 28.9676 46.9435C28.9676 46.9435 48.6103 61.2485 48.8492 60.5829C49.0882 59.9173 30.3596 45.6229 30.3596 45.6229C30.3596 45.6229 14.029 34.0251 13.0412 34.4571Z" fill="black"/>
<path fill-rule="evenodd" clip-rule="evenodd" d="M99.887 52.7935L97.7349 53.2768L52.8059 63.256C51.9819 64.1453 50.6007 65.9101 51.0308 69.7477C51.2512 71.7135 51.7505 73.4804 52.9537 75.0519L97.3644 62.9185C97.5466 61.7783 97.3823 59.4918 97.5248 57.8414C97.6673 56.1911 98.2058 55.5948 98.7519 54.6851L99.887 52.7935ZM96.3849 55.1685C96.1556 55.9884 95.8133 56.7524 95.6537 57.6061C95.1143 57.5873 94.3168 57.5712 93.8495 57.6686C91.1029 58.2408 85.6251 59.763 85.785 60.079C85.9449 60.3951 90.909 58.5917 94.0495 58.3957C94.5039 58.3674 95.0988 58.3989 95.5516 58.4291C95.5089 58.9426 95.4866 59.3616 95.4683 59.7729C90.5887 61.002 85.1602 62.3215 80.2949 63.5187C74.0308 65.0601 64.7088 67.0839 64.8283 67.6041C64.9482 68.1243 74.262 65.5867 80.4805 64.0562C85.3422 62.8596 90.5696 61.7238 95.4491 60.5041C95.4547 60.8357 95.4741 61.1363 95.5282 61.3749L54.101 72.6357C52.7975 72.1122 52.7888 70.7156 52.6469 69.644C52.4322 68.0242 52.4297 66.1564 53.5031 65.2899L96.3849 55.1685ZM72.6185 62.4144C65.7846 64.1014 53.2735 67.4121 53.3855 67.7436C53.4975 68.0751 65.9647 64.7055 72.7167 62.8728C76.287 61.9036 83.6084 60.1078 82.9558 59.9345C82.3037 59.7612 75.9609 61.5893 72.6185 62.4144Z" fill="black"/>
<path fill-rule="evenodd" clip-rule="evenodd" d="M56.5547 14.5236L17.4283 25.649C17.4283 25.649 16.9569 27.1574 16.3913 27.0632C15.8256 26.9689 13.4686 26.9689 13.4686 26.9689C11.371 29.6439 11.3243 32.1821 12.9972 34.6057L68.8116 61.9475L110.484 46.8627L108.598 45.26L110.578 42.3373L110.673 37.7176L56.5547 14.5236Z" fill="white" stroke="#FF6600" stroke-width="0.30992"/>
<path fill-rule="evenodd" clip-rule="evenodd" d="M56.5867 13.8356C43.4326 17.4963 28.5622 21.4312 16.591 24.5876C16.3576 24.7358 16.2721 25.3116 15.7618 25.8335C15.5394 26.0609 14.6071 25.5813 14.2764 25.6189C13.7583 25.6779 13.1608 26.1131 12.743 26.4814C12.1732 26.9838 12.0023 27.4764 11.7493 28.1752C11.488 28.8968 11.4951 29.7 11.4368 30.6001C11.3201 32.4006 11.6541 34.51 12.4076 35.5002C30.8802 44.6378 50.6572 54.809 68.3394 63.4149C68.7111 63.7027 69.5421 63.747 70.0143 63.6669C70.4866 63.5869 70.8895 63.4289 71.0373 63.1128C71.1311 62.912 71.4118 62.528 71.7185 62.3274C72.0305 62.1232 72.3264 62.6416 73.0289 62.6294L111.656 47.8508C112.087 47.686 112.37 47.0613 111.658 46.4883L109.196 44.905L107.962 46.7528C96.4905 50.6951 83.5347 55.4491 71.4046 59.892C70.4784 59.6941 69.4068 57.7429 69.3504 56.8232C69.2875 55.7974 69.8069 54.618 70.1254 54.1107C83.5899 49.0958 98.2491 44.1125 112.821 38.9459C113.505 38.5602 113.307 37.9529 112.715 37.248L56.5867 13.8356ZM56.5221 15.5398L108.907 38.3857L69.8341 51.8545C68.9387 52.1924 68.3844 52.9159 67.9133 53.6045C67.3004 54.5002 66.8798 55.836 66.9779 57.4357C67.0685 58.9152 67.4365 59.9119 67.9362 60.7129L14.0589 34.0238C13.3479 32.978 13.377 32.0255 13.4464 30.7717C13.5009 29.7855 13.7706 28.9212 14.3484 28.1905C14.4166 28.1043 15.1855 27.5181 15.986 27.9718C16.3171 28.1594 16.6389 28.1658 17.2026 27.7613C17.8968 27.2633 17.6546 26.8072 18.1339 26.4217L56.5211 15.5406L56.5221 15.5398ZM17.7904 27.6977C17.6557 27.6725 17.5757 27.6782 17.5529 27.7144C17.1876 28.2938 32.9342 35.782 40.7379 39.5896C49.3631 43.7973 66.5481 52.1901 66.8542 51.7058C67.1603 51.2217 49.7491 42.7758 41.0707 38.5645C33.7885 35.0304 19.8096 28.0764 17.7904 27.6977Z" fill="black"/>
<path fill-rule="evenodd" clip-rule="evenodd" d="M111.475 39.4463C97.2236 44.1082 77.4945 51.4954 70.2486 53.9882C69.4288 54.8891 69.4889 56.0359 69.7611 57.0924C70.0333 58.1489 70.9027 59.619 71.534 59.8736L108.29 46.7003C108.57 46.3131 109.747 45.2232 110.534 44.0128C110.927 43.4076 111.232 42.4121 111.386 41.7524C111.54 41.0927 111.794 39.9227 111.475 39.4463ZM110.104 40.8026C110.377 41.6673 109.776 42.3447 109.369 43.0109C108.721 44.0713 107.858 45.1325 107.288 45.8922L72.0173 58.5396C71.4491 58.2416 70.9927 57.5946 70.7944 56.8251C70.5908 56.0351 70.6585 55.1904 70.8861 54.8292L110.104 40.8026ZM91.4089 48.3234C85.2813 50.5599 72.9481 54.5428 73.1252 55.2047C73.3028 55.8665 85.5551 51.0448 91.7396 48.7797C97.5575 46.6488 108.622 42.5982 108.402 42.3267C108.182 42.0552 96.9172 46.3129 91.4089 48.3234ZM107.297 44.6943C107.163 44.5294 102.72 46.0783 100.534 46.9109C98.4772 47.6947 71.8614 57.2187 71.9841 57.5464C72.1072 57.8741 98.8022 48.1591 100.884 47.3755C103.052 46.5594 107.431 44.8592 107.297 44.6943Z" fill="black"/>
<path fill-rule="evenodd" clip-rule="evenodd" d="M59.761 1.60672L16.0149 10.2805C12.8161 13.3719 11.6771 17.248 13.7522 22.3488L58.1586 51.9531L109.73 38.9419L105.204 35.7363L104.827 30.8337L108.976 25.1769L59.761 1.60672Z" fill="white" stroke="#FF6600" stroke-width="0.30992"/>
<path fill-rule="evenodd" clip-rule="evenodd" d="M59.9467 1L14.9589 9.75211C14.9589 9.75211 11.9977 13.1069 12.0444 16.5604C12.0897 19.9181 12.485 21.9125 13.4465 22.875C14.8479 23.8517 58.1505 53.1438 58.1505 53.1438L110.334 39.4126C110.872 38.7516 110.476 38.2464 110.076 37.7418L106.082 35.9481L106.43 37.773C91.0549 41.8538 74.8203 46.0655 59.2085 49.9394C58.9962 49.0348 58.2572 46.5051 58.1877 45.6207C57.9222 42.2438 60.1674 39.1565 60.4627 38.7645L109.79 27.0791C110.33 26.3526 110.175 25.3916 109.596 24.825L59.9467 1ZM59.8196 2.56875L106.755 25.3858L59.4697 37.213C59.4697 37.213 55.902 40.7807 56.2135 45.5526C56.3277 47.3023 57.2514 49.7559 57.4218 50.4214L15.2362 22.2881C14.3749 21.394 14.0994 19.5819 14.057 16.4464C14.0296 14.4173 15.6266 11.6874 15.8675 11.4755L59.8196 2.56875ZM16.659 11.7458C16.4114 12.248 30.0574 20.3459 36.8926 24.4167C44.1282 28.7259 58.2239 37.4311 58.8713 36.885C59.5188 36.3394 44.7998 27.8837 37.6276 23.6125C30.7293 19.5042 16.9065 11.2434 16.659 11.7458Z" fill="black"/>
<path fill-rule="evenodd" clip-rule="evenodd" d="M108.819 26.9706C108.671 26.9878 108.511 27.0604 108.427 27.081L60.8424 38.6618C59.7386 40.4945 58.6389 42.3088 58.4299 44.2764C58.2337 46.1247 59.1562 48.5559 59.4883 50.191L106.439 37.8582C106.082 36.035 105.842 34.3677 105.822 32.8894C105.797 31.0901 106.622 29.763 107.432 28.8332C107.838 28.3683 108.147 28.2621 108.466 28.0332C108.732 27.842 109.041 27.6878 109.149 27.504C109.2 27.418 109.18 27.3511 109.147 27.1874C109.107 26.9907 108.968 26.9533 108.819 26.9706ZM104.68 29.3039C103.958 30.1856 103.769 30.8375 103.725 31.5227C100.58 31.9817 90.5339 34.1628 85.0811 35.4101C78.7405 36.8607 66.0816 39.957 66.1766 40.2831C66.2724 40.6092 78.9862 37.6359 85.3542 36.1789C90.7959 34.9337 100.592 32.7574 103.715 31.8414C103.713 32.2504 103.734 32.6792 103.736 33.1977C103.744 35.4581 104.068 36.2441 104.156 36.6497L60.3622 47.6022C60.2114 47.1965 60.1204 46.8679 60.0518 46.5585C60.9836 46.5665 63.834 46.0253 65.3539 45.6522C67.3271 45.1678 73.8929 43.312 73.8643 43.0439C73.8357 42.7759 67.1249 44.5414 65.0934 45.0398C63.6009 45.4059 60.8619 45.9434 60.0059 46.3001C59.9051 45.693 59.9187 45.1306 59.9747 44.2481C60.1098 42.1206 61.0825 40.8366 61.2435 40.5939L104.68 29.3039ZM78.5675 39.6455C73.0403 40.8598 62.0747 43.0778 62.1003 43.5539C62.1261 44.0301 73.2673 41.6473 78.7937 40.4331C84.9312 39.0847 97.2086 36.1881 96.3361 36.0358C95.4636 35.8837 84.3201 38.3817 78.5675 39.6455Z" fill="black"/>
</g>
<defs>
<clipPath id="clip0_644_2193">
<rect width="113.386" height="113.386" fill="white"/>
</clipPath>
</defs>
</svg>
