<svg width="25" height="12" viewBox="0 0 25 12" xmlns="http://www.w3.org/2000/svg">
  <path
    d="M15.3558 11.1703C14.8707 11.0628 14.3911 10.699 13.8398 10.0182C13.4126 9.48896 12.9964 8.74199 12.6463 7.88477C12.5664 7.68356 12.492 7.51818 12.4837 7.51818C12.4754 7.51818 12.4093 7.65875 12.3348 7.82964C11.836 8.97904 11.4556 9.613 11.0173 10.0127C10.5322 10.4564 9.99471 10.7348 9.36627 10.8699C9.02448 10.9443 8.34918 10.9388 7.96605 10.8561C7.29626 10.7128 6.45557 10.3462 5.95943 9.97683C5.11048 9.34287 4.39934 8.52149 3.88942 7.5733C3.81224 7.42997 3.72404 7.2894 3.69372 7.26459C3.6634 7.23979 3.55866 7.19293 3.46218 7.15985C3.36296 7.12678 3.18655 7.03582 3.06803 6.95313C2.44785 6.5259 2.27971 6.4184 1.69537 6.08488C0.636935 5.47849 0.204189 5.16426 0.0829102 4.91068C0.00573264 4.75081 0.016758 4.52755 0.121499 4.17198C0.42194 3.16592 0.948402 2.21222 1.91863 0.916743C2.1667 0.588738 2.28247 0.48951 2.42856 0.486754C2.56086 0.481241 2.66009 0.528099 2.8806 0.696236C3.13142 0.889179 3.2086 0.919499 3.61654 0.985651C4.56196 1.13725 5.11323 1.43493 5.59835 2.06338C5.80232 2.32523 5.9043 2.40792 6.22955 2.57055C7.11985 3.01707 8.28578 3.47463 10.0829 4.08378C10.557 4.2464 11.0559 4.42832 11.1937 4.48896C11.7119 4.72325 12.1143 4.99061 12.4341 5.31862C12.5361 5.4206 12.627 5.50605 12.638 5.50605C12.6491 5.50605 12.7345 5.43714 12.8255 5.35169C13.0294 5.16702 13.363 4.941 13.6303 4.80869C13.7378 4.75632 14.0769 4.62402 14.3883 4.51377C15.2896 4.19403 17.9275 3.09976 18.2885 2.89855C18.7516 2.63946 19.0686 2.38312 19.4545 1.95313C19.9148 1.44596 20.433 1.17308 21.2516 1.01321C21.6292 0.94155 21.7478 0.889179 21.96 0.704505C22.1419 0.541881 22.2549 0.48951 22.4038 0.48951C22.5829 0.48951 22.7318 0.610789 23.0019 0.974626C23.8812 2.15434 23.8784 2.15434 24.0686 2.46305C24.3828 2.97297 24.6777 3.62347 24.8762 4.23538C24.9892 4.59094 25.0002 4.72876 24.9313 4.83626C24.9038 4.8776 24.7797 5.01542 24.6557 5.14497C24.4793 5.32689 24.3553 5.42336 24.1265 5.55842C23.465 5.95258 22.6987 6.45423 22.4065 6.69128C22.1915 6.86492 22.0069 6.98345 21.8112 7.07992C21.4308 7.26459 21.315 7.38587 21.0559 7.86823C20.7059 8.51597 20.3558 9.00936 19.901 9.4862C19.2808 10.1367 18.2279 10.8285 17.5995 10.9939C17.3404 11.0601 16.8856 11.0739 16.6458 11.0215C16.4997 10.9912 16.4776 10.9939 16.3178 11.0573C16.1165 11.14 15.7885 11.2117 15.6369 11.2089C15.5791 11.2089 15.4523 11.1896 15.3558 11.1703ZM20.9898 2.28664C21.9269 1.7464 22.1557 1.59205 22.0206 1.59205C21.9903 1.59205 19.8927 2.78554 19.8349 2.83516C19.8211 2.84618 19.8183 2.8765 19.8293 2.90131C19.8404 2.93438 19.8569 2.93714 19.8927 2.91785C19.9203 2.90406 20.4137 2.62016 20.9898 2.28664ZM5.05535 2.79105C5.07189 2.7442 5.09945 2.76073 3.79295 2.06338C2.90265 1.58929 2.81169 1.5507 2.81169 1.64717C2.81169 1.66095 4.99195 2.8324 5.01952 2.8324C5.03054 2.8324 5.04432 2.8131 5.05535 2.79105Z" />
</svg>