<svg width="98" height="113" viewBox="0 0 98 113" fill="none" xmlns="http://www.w3.org/2000/svg">
<g clip-path="url(#clip0_644_2224)">
<path d="M69.7306 20.0556C70.1422 19.6251 69.5719 19.1866 69.4611 18.7092C69.152 17.3724 69.4155 15.5068 69.1919 13.9959C69.0428 12.99 68.4481 12.405 68.249 11.5717C67.6157 8.91736 68.7746 8.24335 69.3262 6.185C69.508 5.50713 69.4534 4.53241 69.6057 3.67399C69.6237 3.54613 69.6461 3.4067 69.6757 3.26277C69.782 2.78312 69.9276 2.25689 70.2877 2.00662C70.237 2.00758 70.1878 2.00758 70.1341 2.01048C70.2023 1.9973 70.2652 1.98863 70.3295 1.97835C70.3436 1.96968 70.3555 1.95843 70.3703 1.95072C70.5884 1.84631 70.7953 1.80551 70.9784 1.80647C71.4989 1.80904 71.8121 2.11521 71.8266 2.12742C71.8369 2.1377 71.8433 2.15023 71.8503 2.16211C72.9426 2.91837 72.0135 5.34457 71.885 7.26285C71.7726 8.93696 72.3239 10.8273 72.1539 12.2454C71.9284 14.1315 70.9293 15.7401 71.2113 17.3628C72.2831 16.1307 73.2247 13.7816 73.5007 11.1681C73.6437 9.81369 73.2575 8.1293 73.3661 6.58947C73.4756 5.03519 74.0305 3.6772 73.9045 2.54924C73.7574 1.23205 72.322 0.324475 70.9036 0.354995C70.2228 0.432099 69.782 0.631926 69.5886 0.739871C69.5086 0.78517 69.4759 0.809907 69.4759 0.810549C69.4383 0.838178 69.3923 0.84621 69.3493 0.837857C69.2484 0.90725 69.1498 0.982427 69.0566 1.06788C68.106 1.94269 68.1751 3.58243 67.9791 5.24241C67.8027 6.73565 66.8913 8.36928 66.9016 9.95569C66.9109 11.4191 67.6662 12.7507 67.8442 14.1302C68.1143 16.2236 68.238 16.985 68.7871 18.3047C69.0473 18.9293 69.0451 19.9782 69.7306 20.0556Z" fill="white"/>
<path d="M71.4816 7.26253C71.6487 5.21029 72.537 3.09251 71.5475 2.31472C71.5211 2.29513 71.4871 2.27168 71.4402 2.2463C71.3293 2.18622 71.1719 2.12711 70.9785 2.12711C70.8413 2.12775 70.6852 2.15634 70.5088 2.24083C70.2916 2.32404 70.0815 2.83389 69.9903 3.32639C69.89 3.81696 69.8672 4.27155 69.8679 4.27284C69.8663 4.30336 69.8541 4.3297 69.838 4.35315C69.8399 5.01464 69.8868 5.67291 69.7304 6.31962C69.5681 6.98914 68.9648 7.43023 68.7875 7.93559C67.9155 10.4164 69.2514 12.0793 69.5958 13.861C69.9183 15.5348 69.2523 17.2176 69.9996 19.1127C70.8105 17.6805 71.4581 14.872 71.7502 12.1101C71.9031 10.6718 71.3447 8.93536 71.4816 7.26253Z" fill="white"/>
<path d="M65.9599 14.669C65.5005 14.2619 64.7205 14.1774 64.2091 13.7261C62.9356 12.6016 63.6125 11.1762 63.2665 9.41693C62.8835 7.46749 60.1357 6.45808 59.7653 4.56904C59.5121 3.27498 60.0172 2.39086 60.1698 1.33711C59.8251 1.23045 59.2195 0.979858 58.9576 1.2025C58.2014 2.33528 58.2226 4.38495 58.5538 5.91578C59.7184 7.26445 60.9183 7.55873 61.6511 9.14803C62.3277 10.6165 61.8677 12.5987 62.8629 13.8613C63.5354 14.7143 64.6039 15.0632 65.4215 15.7465C66.2041 16.4003 67.2604 18.5123 68.2496 18.1705C67.5721 16.7232 67.0995 15.6794 65.9599 14.669Z" fill="white"/>
<path d="M83.1972 30.2902C83.4789 30.8637 82.9835 31.3658 83.1972 31.7716C86.6173 31.4211 89.7256 30.7589 91.5462 28.8088C91.4659 25.9811 93.0992 25.0292 94.5086 23.4222C95.5376 22.2492 96.565 20.8453 97.0678 19.5169C97.4671 18.4606 98.0162 16.0128 97.0678 15.3424C96.6437 18.0066 95.7811 20.0736 94.6435 21.6716C93.1757 23.7341 90.6785 24.8714 90.7382 28.2704C88.7888 29.427 86.2498 30.6831 83.1972 30.2902Z" fill="white"/>
<path d="M70.4037 19.7864C71.0295 19.8131 71.2984 18.4053 70.8082 18.1705C70.6431 18.6392 70.0667 19.2454 70.4037 19.7864Z" fill="white"/>
<path d="M72.02 28.6742C74.025 30.1109 75.8382 32.6753 79.4264 31.6369V30.829C77.0378 30.5848 74.4564 30.1643 73.5013 28.1355C71.0362 27.6831 70.2533 25.5483 70.0002 22.8837C70.4779 21.2716 72.6949 21.8329 73.0978 23.153C76.3037 24.4358 77.0272 28.201 79.6963 30.0207C80.1274 29.1956 80.9829 28.7934 82.3894 28.9435C82.8524 30.6362 85.5009 30.0698 86.9681 29.6168C86.2931 27.8862 84.1995 26.9452 82.3894 26.7887C82.117 27.1598 82.8267 27.448 82.9282 27.8659C83.8612 27.3101 84.8526 28.1371 85.4871 28.6739C84.9981 28.76 85.7997 29.3036 85.3525 29.3473C84.8754 28.8818 84.4908 28.3231 83.8708 28.0009C83.334 27.8675 83.4654 28.4031 82.9282 28.2701C82.5019 27.3326 81.2072 28.0972 80.9084 27.0579C80.475 27.3471 79.7837 27.4839 79.6966 26.7887C79.2362 26.6878 79.5257 27.3358 79.0232 27.1926C78.7495 26.5234 78.6981 25.6325 77.8111 25.5766C77.8288 27.2864 80.129 28.0776 79.6966 29.3473C79.2642 28.7279 78.7723 28.3668 78.3498 27.7313C77.4757 26.4167 77.5733 24.385 76.33 23.0177C75.3165 21.9032 71.3704 19.1754 69.7316 20.1896C67.6372 21.4859 68.6849 25.955 69.8659 27.3272C70.4114 27.9623 71.1972 28.0847 72.02 28.6742Z" fill="white"/>
<path d="M72.9626 23.5568C72.3046 23.0775 71.9628 21.8094 70.8082 22.2104C70.6864 22.4478 70.5068 22.6274 70.2694 22.7488C70.4207 23.5851 70.5367 24.4563 70.6732 25.3074C72.0338 24.4428 73.6045 24.3763 74.9824 25.3074C75.1526 24.189 73.7041 24.0972 72.9626 23.5568Z" fill="white"/>
<path d="M71.0767 25.8461C70.8933 26.8478 72.4906 27.0059 73.6356 27.8663C74.2219 28.3073 74.434 28.9698 74.9817 29.3476C76.2591 30.2282 78.0832 30.2269 79.4258 30.1556C77.5644 28.9197 76.3982 26.9882 74.9817 25.3074C74.0298 25.8754 71.3909 24.1325 71.0767 25.8461Z" fill="white"/>
<path d="M79.8309 26.1157C79.7721 26.6233 80.1152 26.729 80.3693 26.9237C80.4824 26.7675 80.547 26.5626 80.5036 26.2503C80.192 26.2933 79.9867 26.2288 79.8309 26.1157Z" fill="white"/>
<path d="M81.177 26.789C81.434 26.8462 81.4208 27.1736 81.8504 27.0583C82.011 26.658 81.2827 26.48 81.177 26.789Z" fill="white"/>
<path d="M83.8702 31.9062C85.802 33.447 88.8752 33.8739 91.5465 34.8686C93.1609 35.47 95.128 36.2661 95.8557 37.1579C96.7144 38.2104 95.1643 41.6399 94.1051 41.8712C92.8962 42.1353 91.7489 41.1342 90.4696 40.659C88.9093 40.0801 88.3512 40.1575 87.372 39.0431C85.9992 37.4798 84.2185 34.5091 83.3318 33.3872C82.0428 33.1732 80.5368 32.5313 81.1774 30.5591C81.505 31.1746 81.4514 32.1709 81.9857 32.5792C82.5639 32.2152 82.7114 31.4194 82.9283 30.694C82.2719 28.2771 79.0756 29.2808 79.8313 32.31C79.9893 32.7353 80.5808 32.7273 80.7738 33.118C80.5223 33.3817 80.2807 33.1594 79.9655 33.118C79.8843 33.738 80.6637 33.4977 80.7738 33.926C81.2737 33.8874 81.1388 33.2137 81.7164 33.2529C83.1229 34.9061 83.9634 37.7352 85.8913 39.5822C87.8802 41.4882 91.4646 42.8565 94.1054 43.2182C96.6906 43.5723 97.0427 39.5398 97.3373 37.1582C93.5695 34.7645 89.6144 31.8785 83.8702 31.9062Z" fill="white"/>
<path d="M86.4301 31.9062C87.613 31.8422 89.1335 32.7357 89.7966 32.31C89.1149 31.4368 87.3903 30.7756 86.4301 31.9062Z" fill="white"/>
<path d="M47.6455 31.7715C46.765 31.7889 46.2198 32.1413 45.3562 32.1757C45.709 33.063 47.2995 32.1844 47.6455 31.7715Z" fill="black"/>
<path d="M84.1394 47.663C84.5888 47.0101 83.9344 46.481 83.466 46.3162C82.8466 43.7811 80.9669 41.8098 79.4261 39.3136C78.1879 37.3079 76.6137 35.4019 75.6557 33.6577C75.1208 32.6849 74.6261 31.202 73.0972 32.0417C74.1455 34.9164 76.677 36.9687 78.4838 39.4485C79.4499 40.7744 80.2447 42.4536 81.0421 43.8923C81.8366 45.3251 82.569 47.0786 84.1394 47.663Z" fill="white"/>
<path d="M79.5611 32.7141C78.3689 32.584 76.5907 32.293 75.2523 31.9062C75.4814 33.4797 76.9708 34.9399 77.9455 36.2153C77.5066 35.4002 77.6037 33.1989 78.3493 33.2526C78.1145 33.3766 78.0521 33.6738 78.0801 34.0606C78.8055 33.7454 78.873 32.708 79.5611 32.7141Z" fill="white"/>
<path d="M82.7927 32.0408C82.9447 33.533 84.5584 34.2893 85.4865 35.4073C86.4918 36.6185 87.2464 37.9945 88.18 39.178C88.5405 39.4903 89.0844 39.6197 89.2572 40.1206C90.8841 40.1264 92.6145 41.9325 93.5664 40.2552C93.3588 38.8673 92.9961 37.8258 92.7587 36.2153C89.93 34.7349 85.2626 34.29 82.7927 32.0408Z" fill="white"/>
<path d="M51.8202 32.1757C50.8576 32.2454 49.7387 32.159 49.2616 32.7141C49.9099 32.8353 51.3543 32.6766 51.8202 32.1757Z" fill="black"/>
<path d="M48.0494 33.118C47.1691 33.1353 46.6239 33.4881 45.7604 33.5221C46.1131 34.4095 47.7037 33.5311 48.0494 33.118Z" fill="black"/>
<path d="M43.7403 33.3875C42.6879 33.5918 41.627 33.7878 41.1818 34.5993C41.9862 34.6623 43.0888 33.9205 43.7403 33.3875Z" fill="black"/>
<path d="M57.8805 34.3301C57.0474 34.6527 56.6667 36.4704 58.0151 36.4845C57.9907 35.7867 58.6445 35.7675 58.6881 35.1381C58.3849 34.9026 58.3778 34.3709 57.8805 34.3301Z" fill="white"/>
<path d="M41.8551 35.6769C42.3951 35.7758 44.4374 35.0093 44.0098 34.5993C43.2941 34.9611 42.1205 34.865 41.8551 35.6769Z" fill="black"/>
<path d="M78.08 35.4073C78.1379 35.1509 78.3698 35.069 78.3493 34.7343C78.1774 34.7269 78.1629 34.5614 77.9454 34.5993C78.0225 34.8361 77.7825 35.3906 78.08 35.4073Z" fill="white"/>
<path d="M39.5657 35.5423C38.5078 35.6961 37.8589 36.2593 37.411 37.0233C38.3048 37.2186 38.9068 36.0241 39.5657 35.5423Z" fill="black"/>
<path d="M60.3041 36.6194C59.8286 36.2423 59.7194 35.4989 58.8231 35.5419C58.6676 36.0595 58.5018 36.5677 58.2843 37.023C58.6345 37.0769 58.6904 37.4249 59.0926 37.4271C59.401 36.9497 59.7705 36.5218 60.3041 36.6194Z" fill="white"/>
<path d="M38.0845 37.9662C38.826 38.0089 39.7679 37.1547 40.3738 36.6198C39.3994 36.8572 38.5076 37.1775 38.0845 37.9662Z" fill="black"/>
<path d="M93.2974 41.1981C93.8875 41.0449 93.7394 41.1984 94.24 41.3327C95.2738 40.7506 95.3515 39.2127 95.721 37.9662C95.1267 37.3037 94.2955 36.8781 93.2974 36.6198C93.5987 37.7098 93.6687 39.0309 94.3746 39.7171C93.8419 40.0374 93.7716 40.8203 93.2974 41.1981Z" fill="white"/>
<path d="M79.4265 37.2928C79.9058 37.3233 80.2335 37.2022 80.3694 36.889C80.0241 36.9928 79.6058 37.023 79.4265 37.2928Z" fill="white"/>
<path d="M35.9304 38.237C35.1211 38.6566 33.811 39.2374 33.9102 40.1222C34.8008 39.711 35.273 38.8812 35.9304 38.237Z" fill="black"/>
<path d="M80.9078 38.6396C80.8509 38.9361 81.3113 39.3823 81.4466 39.0434C81.2895 39.0209 81.3004 38.8304 81.3119 38.6396H80.9078Z" fill="white"/>
<path d="M83.8702 38.9088C84.1738 39.7251 83.4176 39.9696 83.6013 40.794C84.0999 40.6231 85.2809 38.9232 83.8702 38.9088Z" fill="white"/>
<path d="M76.5984 40.3901C77.6107 40.3789 77.9609 39.9211 78.6185 40.5247C78.5986 39.2162 77.0896 39.9436 76.5984 40.3901Z" fill="white"/>
<path d="M84.6785 39.8514C84.2567 40.5068 84.1657 41.4937 83.8702 42.2753C86.5447 42.9432 83.5692 44.3263 83.3314 44.9685C84.1715 45.0456 84.4571 44.5679 85.082 44.4297C85.0181 45.4465 85.7997 44.1727 86.0252 44.699C85.5112 45.2621 84.5432 45.3714 84.1397 46.0454C86.0178 46.3066 86.7423 44.6986 87.7755 44.5643C87.4343 45.3897 86.6408 45.7633 86.1595 46.4495C87.4484 46.7361 88.3608 44.8014 89.3921 44.8336C88.9221 45.7103 87.9975 46.1321 87.5066 46.9883C88.8639 46.9976 89.4384 45.5095 90.6039 45.7762C90.0809 46.1514 89.36 46.3274 89.1229 46.9883C90.575 47.3867 90.7678 45.879 91.816 46.3149C92.3728 45.5699 92.9048 44.8002 93.0278 43.6218C92.9234 43.5919 92.8714 43.5087 92.8932 43.3525C89.3969 42.9436 86.9396 41.4959 84.6785 39.8514Z" fill="white"/>
<path d="M61.1111 40.9292C60.6491 41.769 59.5125 41.9338 59.4951 43.2182C60.0721 42.657 61.3774 41.441 61.1111 40.9292Z" fill="black"/>
<path d="M61.9204 41.0635C61.5541 42.0447 60.4596 42.2962 60.3041 43.4871C61.0748 43.385 61.6839 42.0084 62.1896 41.1981C62.1597 41.0934 62.0765 41.0417 61.9204 41.0635Z" fill="black"/>
<path d="M32.8333 41.1991C31.9238 41.4118 31.5396 42.1497 31.217 42.9497C32.1995 42.8096 32.1259 41.6135 32.8333 41.1991Z" fill="black"/>
<path d="M81.3123 41.334C81.5111 42.0138 82.2908 43.563 82.9279 42.5458C81.949 42.5825 81.9847 41.6042 81.3123 41.334Z" fill="white"/>
<path d="M67.9797 44.7009C68.6149 44.0776 69.2076 42.6991 69.1915 41.8728C68.6297 42.6576 68.0527 43.4274 67.9797 44.7009Z" fill="black"/>
<path d="M32.9682 44.2961C33.1404 43.7911 33.9664 43.234 33.6416 42.6798C33.5449 43.2555 32.2194 43.7368 32.9682 44.2961Z" fill="black"/>
<path d="M82.9277 44.2954C84.0515 44.4805 85.1775 43.1877 84.0052 42.6792C83.3405 42.9117 83.1657 43.0319 82.5242 43.0833C82.5431 43.6028 82.9791 43.7056 82.9277 44.2954Z" fill="white"/>
<path d="M59.4961 43.8913C58.602 44.0947 58.0301 45.2711 58.1493 46.046C58.8288 45.558 59.054 44.6167 59.4961 43.8913Z" fill="black"/>
<path d="M30.4085 46.181C30.5395 45.5648 31.4002 44.3391 30.9472 44.0259C30.7043 44.5419 29.4498 45.7566 30.4085 46.181Z" fill="black"/>
<path d="M72.6927 46.7184C71.6255 47.0445 69.5578 47.5852 69.9996 49.0078C73.7256 48.1982 77.7022 46.4768 81.3116 45.1025C80.9701 44.8156 80.9679 44.1891 80.3687 44.1595C79.2411 44.6498 78.0209 45.1381 76.598 45.6409C75.3226 46.0916 73.9235 46.3425 72.6927 46.7184Z" fill="white"/>
<path d="M58.9586 47.2582C59.4151 46.3233 59.9208 45.4375 60.305 44.4301H59.9012C59.8209 45.4433 58.2859 46.3827 58.9586 47.2582Z" fill="black"/>
<path d="M31.8898 47.7966C31.8378 46.9549 32.8025 45.7832 32.294 45.3727C32.053 46.0618 31.0353 47.2402 31.8898 47.7966Z" fill="black"/>
<path d="M67.575 45.6422C67.3591 46.5138 66.7336 47.5065 67.0362 48.4703C67.5384 48.009 68.0155 46.1546 67.575 45.6422Z" fill="black"/>
<path d="M29.7353 49.6821C29.7684 49.136 30.2073 47.6964 29.7353 47.5274C29.594 48.0212 29.1471 49.3175 29.7353 49.6821Z" fill="black"/>
<path d="M57.8805 47.662C57.8503 47.5569 57.7674 47.5052 57.6109 47.5274C57.3594 48.4378 56.0859 49.6281 56.668 50.4898C57.0458 49.5208 57.6125 48.7411 57.8805 47.662Z" fill="black"/>
<path d="M85.2156 47.7979C84.8745 48.3993 84.4825 48.9499 84.4073 49.818C85.1774 49.7322 85.4225 48.4118 85.2156 47.7979Z" fill="black"/>
<path d="M57.6093 50.7599C58.0661 49.8254 58.5718 48.9393 58.9557 47.9322H58.5519C58.4709 48.9454 56.9362 49.8848 57.6093 50.7599Z" fill="black"/>
<path d="M31.351 51.0288C31.5074 50.6873 31.7233 49.1343 31.216 49.0087C31.0233 49.5073 30.6548 50.8065 31.351 51.0288Z" fill="black"/>
<path d="M66.9036 49.5488C66.6874 50.4204 66.0616 51.4131 66.3651 52.3769C66.8663 51.9152 67.3437 50.0609 66.9036 49.5488Z" fill="black"/>
<path d="M81.5822 50.8949C80.1246 49.7165 78.2413 52.0241 76.1952 51.9724C76.3481 52.5828 76.5454 53.1489 76.7336 53.723C77.877 52.3068 80.5818 52.4533 81.5822 50.8949Z" fill="white"/>
<path d="M84.2746 51.2981C84.1021 51.2907 84.088 51.1252 83.8702 51.1635C83.8429 52.3033 83.1496 52.7765 83.0625 53.8566C84.1124 53.6497 84.017 52.2975 84.2746 51.2981Z" fill="black"/>
<path d="M56.2633 55.0681C56.8627 54.574 57.5033 52.7399 57.2059 52.2403C56.8762 53.0955 55.9263 53.9896 56.2633 55.0681Z" fill="black"/>
<path d="M55.7267 52.3759C55.3734 53.3243 54.6624 53.9151 54.6495 55.204C55.195 54.6119 56.1184 53.0136 55.7267 52.3759Z" fill="black"/>
<path d="M74.4436 52.7791H74.1747C72.6381 54.2052 69.3519 53.8823 68.115 55.6072C70.3089 55.9921 72.7377 54.3154 74.9824 53.8566C74.9698 53.3307 74.8853 52.8764 74.4436 52.7791Z" fill="white"/>
<path d="M65.8273 56.2793C66.5395 55.87 66.3696 54.5775 66.5 53.5861H66.0962C66.1954 54.609 65.5153 55.4825 65.8273 56.2793Z" fill="black"/>
<path d="M78.8877 59.6471C78.5321 57.7137 77.7897 56.1668 76.868 54.7992C76.5807 54.4127 76.7468 53.5736 75.9254 53.7217C75.5167 54.2303 76.2184 54.6723 76.4641 55.4726C77.0636 57.4291 77.0051 60.838 78.8877 59.6471Z" fill="white"/>
<path d="M75.2532 54.2617C75.2063 54.7533 74.8057 55.3791 75.2532 55.6082C75.4588 55.3736 75.7826 54.4124 75.2532 54.2617Z" fill="white"/>
<path d="M83.3299 55.0681H82.9261C82.6976 55.9622 82.3125 56.6992 82.1184 57.627C83.1471 57.3983 83.0671 56.0618 83.3299 55.0681Z" fill="black"/>
<path d="M70.9424 55.8764C70.5331 58.1465 71.6222 60.0297 72.693 61.2628V61.9365C73.242 62.8289 73.8888 63.9543 74.309 65.1687C74.6482 66.1463 74.504 67.6502 75.6557 67.9965C76.1836 67.3103 75.3226 66.1087 75.3865 65.0341C74.0279 61.859 73.1341 58.2191 70.9424 55.8764Z" fill="white"/>
<path d="M55.187 59.6462C55.5783 58.8244 56.0586 57.378 55.9946 56.5488C55.7787 57.4953 54.6026 58.7836 55.187 59.6462Z" fill="black"/>
<path d="M54.2441 59.7817C54.2685 58.887 55.0261 57.361 54.5136 56.819C54.2161 57.4747 53.3754 59.2459 54.2441 59.7817Z" fill="black"/>
<path d="M76.5984 58.0311C76.9383 57.6517 76.4728 57.2614 76.3292 56.9536C76.0757 57.2469 76.2771 57.9017 76.5984 58.0311Z" fill="white"/>
<path d="M65.8273 57.2238C65.6574 57.9357 65.1074 58.8886 65.4229 59.6478C66.0114 59.446 66.2794 57.5782 65.8273 57.2238Z" fill="black"/>
<path d="M82.2536 58.8398H81.8495C81.9295 59.8437 81.0257 60.493 81.311 61.2634C82.1103 60.9408 82.1926 59.9012 82.2536 58.8398Z" fill="black"/>
<path d="M77.0029 60.7243C76.6257 59.463 75.0397 60.5181 74.1748 60.7243C74.2098 61.273 74.428 61.6383 74.5786 62.0711C75.7792 62.0145 76.5557 61.5346 77.0029 60.7243Z" fill="white"/>
<path d="M89.2572 60.1856C89.3783 60.5589 88.9806 61.4504 89.5264 61.3977C89.1727 60.9868 89.7333 60.2733 89.2572 60.1856Z" fill="white"/>
<path d="M53.7053 63.687C53.6799 62.6737 53.9492 61.9557 53.9749 60.9935H53.5707C53.6118 61.7575 52.792 63.3401 53.7053 63.687Z" fill="black"/>
<path d="M65.0174 63.5521C65.6567 63.4326 65.8945 61.2014 65.152 60.9935C65.2783 61.9593 64.699 62.8321 65.0174 63.5521Z" fill="black"/>
<path d="M71.7514 61.532C70.4185 62.5327 67.7857 62.2346 66.7689 63.5518C68.4993 64.0867 70.4998 62.6355 72.4248 62.4743C72.305 62.0566 72.2863 61.5362 71.7514 61.532Z" fill="white"/>
<path d="M90.3335 69.207C90.019 66.3577 89.9795 63.9559 89.3909 61.531C89.1769 64.0941 89.9181 66.8287 90.3335 69.207Z" fill="white"/>
<path d="M81.5822 61.9368H81.1777C81.0576 62.8492 80.3704 63.1942 80.3698 64.2261C81.3098 63.9987 81.3467 62.8684 81.5822 61.9368Z" fill="black"/>
<path d="M69.865 64.2258C69.6593 64.4192 69.7342 64.9277 70.1345 64.8992C70.0751 64.645 70.3176 64.0876 69.865 64.2258Z" fill="white"/>
<path d="M80.6383 64.8992C80.4665 64.8921 80.452 64.7266 80.2345 64.7642C79.92 65.6175 79.2505 66.1151 79.157 67.1885C80.1535 66.9276 80.2599 65.7775 80.6383 64.8992Z" fill="black"/>
<path d="M64.6129 65.1687H64.2085C64.2708 66.2845 63.2498 66.9639 63.5357 67.8622C64.3961 67.4651 64.4414 66.2543 64.6129 65.1687Z" fill="black"/>
<path d="M69.0577 66.6497C67.7286 67.7003 65.6198 67.9705 64.8828 69.6128C66.4728 69.3105 68.3567 68.1542 69.8653 67.3234C69.4473 67.2463 69.5113 66.6899 69.0577 66.6497Z" fill="white"/>
<path d="M39.4321 70.5563C38.9056 71.5818 37.5826 73.7497 38.7591 74.5962C38.9897 71.3158 41.7125 70.4146 41.8564 67.1895C40.8932 67.7902 40.1013 69.2536 39.4321 70.5563Z" fill="white"/>
<path d="M79.1566 67.591H78.7528C78.6008 68.5369 77.4227 69.1081 77.6749 70.0153C78.5063 69.5447 78.9111 68.6477 79.1566 67.591Z" fill="black"/>
<path d="M40.3734 72.9787C41.0156 71.6618 42.4237 70.6016 41.5856 69.2077C40.5196 71.0186 38.9477 73.0291 39.1613 75.6718C39.8511 74.957 39.879 73.9916 40.3734 72.9787Z" fill="white"/>
<path d="M67.3068 69.8817C67.5747 70.6913 67.895 71.4485 68.1151 72.3059C67.5927 72.651 66.7381 72.8923 65.96 73.2485C65.3561 73.5251 64.3132 74.4822 64.0752 73.5184C65.1119 72.8942 66.4005 72.5218 67.3071 71.7675C66.0352 72.4704 64.0601 72.4704 63.671 74.0568C65.2256 74.6965 66.512 72.9029 68.1154 72.7101C68.9308 73.3931 68.4765 75.215 68.9231 75.942C69.4429 73.8352 68.3862 71.257 67.3068 69.8817Z" fill="black"/>
<path d="M62.7271 70.0166H62.3233C62.1559 70.9781 61.0167 71.5108 61.2461 72.4409C62.0775 71.9705 62.4826 71.0732 62.7271 70.0166Z" fill="black"/>
<path d="M77.1359 70.9579C76.3028 71.3373 75.7364 71.9821 75.5199 72.9783C76.5216 72.7673 76.8329 71.8664 77.1359 70.9579Z" fill="black"/>
<path d="M40.3735 76.6154C40.4711 74.4979 42.3994 73.5457 41.9894 71.363H41.5856C41.2785 72.5128 38.7543 75.756 40.3735 76.6154Z" fill="white"/>
<path d="M41.9894 73.3835C41.7317 74.4497 40.0843 76.465 41.316 77.2888C41.4994 75.9934 43.3114 74.5387 41.9894 73.3835Z" fill="white"/>
<path d="M74.9833 73.5184C74.1654 73.9119 73.5466 74.505 73.3677 75.5379C74.3691 75.3278 74.68 74.4266 74.9833 73.5184Z" fill="black"/>
<path d="M60.8425 73.9219C60.6681 74.3071 60.1849 75.8489 60.9771 75.9414C61.007 75.837 61.0902 75.7856 61.247 75.8074C60.8669 75.4238 61.4629 74.0649 60.8425 73.9219Z" fill="black"/>
<path d="M42.5292 75.1344C42.2542 75.9131 41.4532 76.8123 41.8558 77.8275C43.0371 77.663 43.59 75.6738 42.5292 75.1344Z" fill="white"/>
<path d="M72.5578 75.9407C72.0412 76.547 71.1567 76.7847 71.0764 77.8262C71.8156 77.603 72.9128 76.369 72.5578 75.9407Z" fill="black"/>
<path d="M44.0095 77.2884C44.077 76.7272 43.6683 76.6417 43.2015 76.6148C43.1128 76.8981 42.8449 77.2136 43.0669 77.4231C43.534 77.531 43.5848 77.2226 44.0095 77.2884Z" fill="white"/>
<path d="M63.9414 77.5567C62.969 77.4513 62.7299 76.6128 61.6521 76.6135C61.8709 77.3045 63.3085 78.5851 63.9414 77.5567Z" fill="black"/>
<path d="M73.0975 77.558C75.2825 77.2139 77.0529 78.4498 79.4265 78.3657C78.2882 77.8773 76.7047 77.3164 75.1173 77.1538C74.451 77.0857 73.6613 77.0967 72.9626 77.2888C72.756 77.3209 72.943 77.5104 73.0975 77.558Z" fill="black"/>
<path d="M70.1345 77.9618C69.2947 77.9294 69.162 78.605 68.2493 78.5006C68.1857 78.9234 68.4173 79.0506 68.6538 79.174C68.8491 78.4713 70.1342 78.8588 70.1345 77.9618Z" fill="black"/>
<path d="M67.1702 78.6362C66.36 78.3467 65.6281 78.1311 64.8809 78.0971C65.1196 78.738 66.7056 79.4801 67.1702 78.6362Z" fill="black"/>
<path d="M35.9296 79.1736C35.9097 79.5524 36.2596 79.5617 36.6027 79.5778C36.6644 79.1569 36.3152 79.147 35.9296 79.1736Z" fill="white"/>
<path d="M79.1573 81.3284C77.5629 80.3973 74.9278 79.1097 72.5588 79.8467C72.731 79.8544 72.7452 80.0192 72.9627 79.9816C75.8361 79.6713 77.5227 81.5674 79.1573 81.3284Z" fill="black"/>
<path d="M83.5997 85.3699C83.4847 84.746 82.6851 83.7446 82.253 84.2924C81.641 83.9624 81.4151 83.245 80.5021 83.2148C80.6145 83.6415 80.8953 83.8998 81.1758 84.1581C81.8684 83.6235 82.3449 85.5742 83.5997 85.3699Z" fill="black"/>
<path d="M81.4466 85.6375C80.7415 85.4476 80.2091 84.205 79.2922 83.8866C79.3012 84.416 79.6264 84.6297 79.831 84.9641C80.9753 84.7299 81.4672 86.9926 82.7931 86.5801C82.7285 86.0458 82.3247 85.6266 81.8505 85.3686C82.0079 85.4537 81.6413 85.6899 81.4466 85.6375Z" fill="black"/>
<path d="M81.312 88.4656C81.6448 87.4337 80.531 86.7513 80.2344 85.907C80.1788 86.0757 80.0606 86.182 79.8306 86.1759C79.3073 85.4871 78.7319 84.8507 77.5413 84.8298C79.029 85.811 80.4407 86.8683 81.312 88.4656Z" fill="black"/>
<path d="M21.386 93.4481C22.1175 93.327 22.3835 92.74 22.5978 92.102C21.9318 92.288 21.7394 92.9489 21.386 93.4481Z" fill="white"/>
<path d="M29.4658 94.7948C29.7482 94.1324 30.8241 93.5525 30.4084 92.6401C30.207 93.3835 29.2853 94.1176 29.4658 94.7948Z" fill="white"/>
<path d="M51.5509 103.279C51.3186 104.593 50.6282 106.509 51.2817 107.857C51.0289 106.456 51.8683 104.223 51.5509 103.279Z" fill="black"/>
<path d="M34.1791 93.0443C34.1695 92.9726 34.1685 92.9058 34.1618 92.8361C34.1502 92.9074 34.1525 92.981 34.1791 93.0443Z" fill="white"/>
<path d="M78.349 103.683C78.6809 104.281 77.6641 105.3 77.9452 105.837C78.7718 105.05 79.3019 104.052 79.6957 102.874C79.9489 102.117 79.8676 100.983 80.6383 100.585C80.3749 102.925 79.4602 104.614 78.2147 105.972C80.6669 105.372 81.0788 102.731 81.9851 100.585C82.0487 102.444 81.3811 103.572 80.6383 104.625C82.6495 103.898 83.2213 101.732 83.4664 99.2383C84.224 100.359 83.2435 101.943 82.9277 102.874C84.737 102.17 84.4768 99.3957 85.217 97.6223C85.509 99.361 84.8565 101.294 83.8703 102.201C85.9212 101.466 86.4134 98.6141 86.2945 96.1406C87.026 97.3341 86.4641 98.9597 86.1596 100.181C88.0907 99.6129 87.9886 96.539 87.6413 94.7942C88.5032 95.1887 87.8324 97.1166 88.4489 97.7566C89.7825 96.7504 89.1467 93.7742 88.4489 93.0436C89.3311 93.4182 89.2759 94.7306 89.9306 95.333C90.9339 94.2709 89.689 92.358 89.3918 91.2927C90.1301 91.7669 90.3164 92.7921 90.7379 93.5821C91.6275 92.1701 90.2946 90.2509 90.0646 89.5422C91.0078 89.7664 90.8318 91.1093 91.6809 91.4277C92.2958 89.7799 91.0358 88.9629 90.6033 87.9265C91.6921 87.9599 91.6391 89.1358 92.2196 89.6771C93.2734 88.2908 91.3551 87.1253 91.4113 86.3105C92.3356 86.3289 92.2206 87.3868 92.8923 87.6567C93.0912 86.6058 92.4924 86.3517 92.3536 85.6372C92.9511 85.5235 92.8214 86.5833 93.2968 86.1756C93.4424 84.773 92.5447 84.4138 92.2193 83.4825C92.9508 83.6485 93.0671 84.4299 93.7003 84.6946C94.2516 83.5072 92.9409 82.6937 92.892 82.1354C93.5413 82.2045 93.4575 83.0067 94.1038 83.0786C93.9834 82.4637 94.3278 82.3153 94.3734 81.8668C94.224 81.3428 93.524 81.3692 93.4305 80.7893C93.9663 80.7022 93.9718 81.1452 94.5077 81.0582C95.1778 78.8877 94.9369 75.7563 95.0471 73.3825C94.9012 72.7201 93.4764 73.3362 93.4308 72.5742C94.03 72.4688 94.2391 72.7541 94.7775 72.7088C95.5412 71.3752 93.968 71.2968 93.2965 70.9582C93.6615 70.5589 94.2899 71.0344 94.7775 70.9582C95.1862 70.4516 94.6699 69.9694 94.6426 69.4772C94.1495 69.2526 93.3784 69.3053 92.892 69.0734C93.2422 68.6638 94.1009 68.8164 94.6426 68.9384C94.9076 68.5751 94.7226 67.7616 94.7775 67.1879C94.3965 66.6263 93.3434 66.7371 92.6228 66.5145C92.9707 66.0197 94.2365 66.2511 94.6426 66.5145C94.8113 66.2784 94.5845 65.5758 94.5077 65.1681C93.861 64.6849 92.7761 65.2831 92.3533 64.7636C93.1073 64.4426 93.737 64.5265 94.5077 64.7636C94.7894 64.4426 94.4749 63.901 94.3734 63.5518C93.8256 63.1177 92.5441 63.8072 92.3533 63.2829C92.7292 62.7406 93.9908 63.2263 94.3734 63.013C94.4123 62.4354 94.1861 62.1231 93.9689 61.8015C93.3126 61.6052 92.1779 61.887 91.8145 61.3971C92.3247 60.8782 93.2904 61.753 93.9689 61.3971C93.9085 60.8959 93.8404 60.4792 93.5651 59.916C92.7025 59.6519 91.7843 60.4108 91.5453 59.916C91.7425 59.3056 92.9328 59.6873 93.4305 59.3773C93.4902 58.8687 93.1651 58.7447 93.0263 58.4347C92.246 58.2416 91.5228 58.8099 91.1411 58.569C91.2709 57.8908 92.343 58.1552 92.8917 57.8953C92.9791 57.3138 92.6591 57.1406 92.4879 56.8181C91.7085 56.6375 91.0126 57.6183 90.6024 56.9527C91.0762 56.6185 91.8553 56.59 92.4879 56.4139C92.477 55.8864 92.2505 55.5741 92.0837 55.2024C91.1925 55.0325 90.4806 55.7495 90.0636 55.6062C90.1436 54.7883 91.3272 55.0742 91.9491 54.7983C91.836 54.2826 91.6317 53.8589 91.1408 53.7207C90.6236 53.7911 90.0032 54.4622 89.5248 54.1246C89.8564 53.6035 90.6345 53.5286 91.2754 53.3166C91.197 52.8115 91.0043 52.4206 90.6021 52.2394C90.1912 52.4161 89.3976 52.914 88.9861 52.6435C89.361 52.2098 89.7729 51.814 90.6021 51.8355C90.6477 51.2065 90.2287 51.0417 89.929 50.758C89.4079 50.7368 88.837 51.3639 88.5823 51.1622C88.5861 50.4477 89.6421 50.7857 89.7941 50.2193C89.2704 49.2818 88.0441 50.4419 87.5047 50.2193C87.5529 49.5048 88.5093 49.6972 88.9858 49.4113C88.6664 48.3257 87.2856 49.0807 86.5621 48.8725C86.6685 48.3958 87.5693 48.7132 87.5047 48.0645C86.6826 47.6299 85.5881 47.4676 84.6766 47.1219C84.4739 47.413 84.5266 47.9598 84.1379 48.0645C82.5971 48.3485 82.8869 46.802 81.9835 46.4486C81.2876 47.5036 80.709 48.6756 80.3675 50.0846C81.1199 50.0519 81.7705 49.9757 82.1184 50.8926C81.6236 51.7896 80.6499 52.2076 79.5592 52.5086C78.9783 53.7056 78.0531 54.7828 78.0782 56.1447C78.1007 57.3539 79.4519 58.3415 79.1557 59.7801C78.7743 59.9828 78.5331 60.3247 77.9439 60.3189C77.301 59.8842 77.125 58.9831 76.8664 58.1645C75.9408 58.4061 75.5633 59.1957 75.2507 60.0497C75.9716 60.0972 76.1968 59.6494 77.0013 59.7801C77.2766 60.1332 77.4703 60.5675 77.4051 61.2612C76.4246 61.4931 75.9151 62.1954 74.8465 62.339C75.3024 64.1718 75.9597 65.8042 76.193 67.8603C76.0131 67.9946 75.9283 68.2239 75.6542 68.2641C73.876 68.1115 74.6689 65.3885 73.3649 64.7626C72.9305 65.9455 72.7259 67.3562 71.8838 68.1292C72.3622 68.9532 74.0749 70.5785 72.6915 71.2268C71.4215 71.1956 71.915 69.3995 70.8066 69.2067C70.8118 70.1997 70.2158 70.592 69.5948 70.9573C69.2485 70.9447 69.4017 70.4317 69.0561 70.4185C69.4692 71.9179 71.0065 74.8603 69.4599 76.2093C70.2033 73.7214 68.7309 71.7045 68.2481 69.6108C68.6201 69.3092 68.9529 68.9693 68.9215 68.2641C67.3983 68.7605 66.2466 69.6292 64.6123 70.0147C64.3878 69.8348 64.5673 69.252 64.3428 69.0721C66.042 68.3467 67.3983 67.2791 68.9215 66.3783C69.1255 65.6747 68.2417 65.3602 68.5176 65.0322C69.5203 66.5434 70.6563 67.921 71.6146 69.4759C71.7994 70.0995 71.8954 70.8117 72.6921 70.8227C72.5585 68.1915 69.4361 66.7509 69.5951 63.8197C68.5857 63.3805 67.8442 64.2907 66.767 64.2239C66.6594 63.9723 66.5418 63.7307 66.4972 63.4159C67.2223 62.4344 68.8016 62.3085 69.9987 61.8002C70.0671 60.0959 70.2807 57.4297 70.807 55.7402C69.7111 55.6319 69.403 56.3114 68.3827 56.2786C67.9904 56.0878 67.7829 55.7113 67.8439 55.0668C68.9549 54.6964 69.6257 53.8855 71.0762 53.855C71.8016 52.3142 71.63 49.7213 73.3655 48.8725C74.4964 50.1656 74.0405 53.0454 76.1936 53.3166C75.7724 51.3581 75.1787 49.5732 74.3081 48.0645C72.7917 48.2647 70.9355 49.9382 69.5951 49.0074C69.7368 46.7252 72.2449 46.8097 73.904 46.0447C73.6816 44.5923 74.5263 42.4067 75.1161 40.9276C73.6836 41.2052 69.831 43.4476 70.9412 40.793C70.912 41.2855 70.7565 41.3096 70.9412 41.7359C73.5544 41.2961 75.5292 40.2186 77.8093 39.4466C77.7742 39.0325 77.5172 38.8407 77.4054 38.5037C75.4239 39.0813 72.9392 39.8723 71.2108 40.2542C72.7699 39.2095 74.9439 38.7806 77.0016 38.2341C75.7406 36.1279 73.7334 34.7686 72.8268 32.3087C72.9067 31.8503 73.1757 31.5807 73.6351 31.5007C72.4152 29.7132 69.9874 29.1333 68.9215 27.1913C66.2508 29.683 64.6701 33.2638 64.2078 37.9646C64.1667 38.282 63.7407 38.2149 63.804 38.638C65.2034 38.691 65.2725 37.4127 66.0934 36.8871C66.2704 37.6475 65.5597 37.5203 65.5546 38.0992C67.1198 37.5993 68.011 36.4257 69.0561 35.4057C68.7811 36.5796 67.167 37.0914 67.0356 37.9643C68.1658 37.9745 69.5839 36.9789 70.5371 37.695C68.8909 38.2486 66.5708 38.1281 65.4197 39.1764C66.5846 39.0733 67.3453 39.3743 68.2314 39.55C67.7296 39.4784 67.9885 39.9079 67.8436 39.9844C62.8884 39.0807 59.7432 41.1223 56.3969 42.2737C56.2193 42.6107 56.9296 42.6952 56.5319 42.8125C56.2752 42.7547 56.1936 42.5224 55.8582 42.5433C51.4578 45.6242 47.041 50.9081 44.681 57.2216C43.4968 60.3899 42.446 64.327 42.2571 67.8603C42.064 71.4687 42.4893 75.7371 45.0852 77.1519C45.2509 76.6896 45.4842 76.2938 46.2973 76.4782C46.6597 76.128 46.1325 76.0721 46.1624 75.6706C46.5784 75.7036 46.3901 76.3407 46.9703 76.2093C47.3645 76.2443 47.3841 75.9048 47.7787 75.9395C48.0572 75.2931 47.1824 75.1116 47.5091 74.8623C47.9268 74.9387 47.8635 75.4958 48.3174 75.5356C48.6779 75.4476 48.8292 75.1501 49.1254 74.9969C49.3329 74.4212 48.3875 74.3103 48.7212 74.0543C49.2215 74.0029 49.0734 74.6001 49.6642 74.4584C49.7914 74.0469 50.3192 74.0366 50.3372 73.5158C50.2768 73.077 49.5154 72.6394 49.6642 72.4383C50.2473 72.3936 49.9957 73.184 50.6067 73.1114C50.7565 72.5424 51.0919 72.1601 51.2801 71.6303C51.0523 71.3582 50.2646 70.948 50.4721 70.6877C50.9724 70.636 50.8242 71.2332 51.4147 71.0916C52.0364 69.9591 50.7793 69.2318 50.7414 68.8022C51.2419 68.7508 51.0935 69.3477 51.6843 69.2061C52.2144 68.2641 51.8022 67.3671 51.2801 66.7824C51.629 66.927 51.781 67.2691 52.223 67.3212C52.436 66.8602 52.5523 66.3041 52.8964 65.9744C52.9636 65.4517 52.1691 65.0945 52.4923 64.7623C52.774 64.8854 52.9028 65.16 52.8964 65.5709C55.1115 65.3165 53.8827 61.6194 55.455 60.7224C55.4052 61.2522 54.6309 62.3563 55.1861 62.6079C56.403 60.9071 57.4828 58.3521 58.8215 57.2212C57.4198 59.5903 55.9118 61.8532 54.7816 64.4934C57.6393 63.2209 59.7294 61.1815 62.9964 60.3186C60.7973 61.5789 58.2535 63.0429 56.1283 64.3585C55.4701 64.7658 54.2281 65.1305 54.3774 66.1091C55.9979 65.4395 57.9994 64.4346 59.6298 64.2239C58.0161 65.214 55.6522 65.4534 54.5124 66.917C55.5745 67.2158 57.7343 66.1524 58.6866 66.7827C57.4773 67.2335 55.5375 66.9553 54.5124 67.5904C54.5712 68.0534 54.4594 68.3457 54.3774 68.6679C55.0714 69.2192 57.1962 68.3518 58.0135 69.0724C57.0568 69.3728 55.5546 69.1273 54.3774 69.2067C54.3347 69.5228 54.1651 69.7124 54.2428 70.1499C55.6413 70.3224 56.8779 70.6572 57.4748 71.631C56.3519 71.3935 55.082 70.6309 53.7044 71.0922C53.607 72.2667 54.8568 72.0942 55.0511 72.9777C54.399 72.8216 54.284 72.1283 53.4349 72.1691C52.3409 74.0376 50.8323 75.4923 49.3953 77.017C53.155 77.4308 56.5543 75.977 60.0336 77.017C57.7022 77.3951 54.8205 76.5325 52.8964 77.4215C53.9611 77.5744 55.0389 78.5546 56.2629 78.7676C57.3973 78.9655 58.8854 78.3859 60.4372 78.4987C65.9652 78.9009 71.463 81.1456 72.961 84.8279C69.9415 80.5496 64.1083 78.6066 56.9357 78.9025C57.4568 80.2219 59.3982 80.121 60.0333 81.3268C62.9999 82.8489 65.365 84.9725 68.3824 86.4442C71.3534 87.2223 74.9924 87.1487 76.3276 84.9625C77.0196 85.9768 78.8106 86.6087 78.4823 88.1951C77.7681 87.327 76.8618 85.4023 75.5193 86.04C76.1586 87.3319 77.5034 88.6339 76.866 90.7537C76.4169 89.1316 75.9221 86.858 74.3071 86.8483C74.9914 87.8215 76.1663 90.142 75.3847 92.2347C74.8626 90.2432 75.083 87.5089 72.8258 87.2522C73.5554 88.3345 74.3981 91.1498 73.4992 93.1776C73.52 90.8227 73.4703 88.0926 71.4797 87.3871C71.9715 88.615 73.0883 91.8717 72.0181 93.8506C72.0274 91.392 71.9005 88.1344 70.1326 87.3871C70.7989 88.9247 70.3733 91.5224 69.4593 92.1007C69.9447 90.8038 70.069 88.517 69.4593 87.2522C69.022 87.3306 68.8331 87.1606 68.5167 87.1172C68.7187 89.1364 68.0653 91.2873 67.035 92.5045C67.681 90.9956 67.8185 88.9783 67.7087 86.7137C67.283 86.7356 67.2589 86.3562 66.7661 86.4448C66.8005 88.0798 66.7667 89.4014 66.3623 90.3498C65.9285 91.3653 65.1604 92.4673 64.6114 92.7734C65.3249 91.2715 67.2926 87.8578 65.8235 86.0404C65.5401 87.0042 65.2018 88.6221 64.4767 89.5415C64.8109 88.3046 65.3095 87.2323 65.1501 85.5016C64.833 85.5048 64.7537 85.2696 64.3418 85.3673C64.2927 89.0435 62.7172 91.1944 60.9753 93.1779C61.4067 92.0879 62.8418 90.1632 63.3995 88.3297C63.9177 86.626 64.5249 84.2246 62.5912 84.2898C62.9562 86.3648 62.0788 87.9811 61.3797 89.2729C61.0074 89.9608 60.521 90.7922 60.033 90.8886C61.1214 88.8794 62.2546 86.9155 62.1877 83.751C61.7187 83.5464 61.3524 83.2396 60.7067 83.2123C60.9952 86.6884 59.661 88.5411 58.2824 90.3498C59.2896 88.0348 60.5367 85.961 60.3022 82.4046C59.9141 82.3442 59.881 81.9282 59.3596 82.0008C59.4229 84.9821 57.8805 87.0755 56.8011 88.4646C57.5666 86.2579 59.2019 84.2349 58.8209 81.3274C58.5038 81.3303 58.4241 81.0948 58.0129 81.1925C57.8526 84.3544 56.5505 86.3735 55.0502 88.1954C56.0654 85.8858 57.6338 83.4208 57.6087 80.5191H56.935C56.2025 83.7366 54.7887 86.273 53.0301 88.4643C54.1856 85.6696 55.8129 83.3469 56.8007 80.3842C55.2404 80.9788 54.1554 82.766 53.0301 83.3472C53.6292 81.7862 55.7746 81.0726 56.2623 79.8457C54.0777 80.3553 52.6853 82.3734 51.4141 83.3472C52.0904 81.3303 54.0996 80.6457 55.5889 79.4419C52.6995 78.871 50.5139 81.9767 49.1248 83.3472C49.8351 80.8709 52.0091 79.8573 54.2419 78.9031C51.8366 78.1279 49.6115 79.6825 48.1818 81.0575C46.6073 82.5723 45.4048 84.5722 44.1419 86.0404C45.7492 82.306 48.2361 79.4512 52.3567 78.2298C48.6592 77.6438 46.226 80.495 44.0073 82.2697C44.9955 79.8014 47.6296 78.9793 49.7978 77.691C45.5741 77.8211 43.2205 80.5403 41.3138 82.5392C42.0322 79.8014 44.7369 79.0493 46.8354 77.691C44.1005 77.6499 42.1176 79.0776 40.7754 79.9803C41.1513 79.234 42.099 79.0599 42.5263 78.3644C40.0458 78.6625 39.223 79.7885 37.4088 80.6537C37.288 81.0479 37.288 81.0675 37.4088 81.4617C36.3908 81.6108 35.993 82.3799 35.6583 83.2123C35.9927 83.3877 36.2169 82.8174 36.3313 83.2123C35.4279 83.4757 34.9659 84.1812 34.7154 85.0978C35.0222 85.2828 35.2217 84.7502 35.2541 85.0978C34.5849 85.8203 34.0764 86.7031 33.9077 87.9259C34.9711 87.6412 35.2062 85.8145 36.0624 85.7711C34.5248 87.5436 34.3857 89.093 33.5035 91.562C34.7536 89.9839 35.4257 87.8276 37.2742 86.8483C35.9972 88.5058 33.8942 90.0186 34.1599 92.8348C34.1991 92.5961 34.4021 92.3789 34.4465 92.6392C34.4208 93.2855 33.8341 94.5057 34.4465 94.9285C35.0103 92.5257 36.1855 90.0282 37.813 89.138C36.6291 90.4738 35.0103 92.8329 34.8506 95.1977C34.8182 95.6738 34.5965 96.9168 35.389 97.0832C35.8995 94.631 36.7525 92.5209 38.2171 91.0229C37.5981 92.5216 36.1353 94.6172 35.9278 96.6787C35.8658 97.293 35.6698 98.7506 36.4666 99.103C36.7319 98.3808 36.5125 97.1741 37.005 96.6787C37.3041 97.5921 36.0762 100.477 37.6784 100.719C37.3574 98.0438 37.6148 94.9568 38.7559 93.3119C37.6781 96.3212 37.3716 101.363 39.429 103.546C39.7425 102.722 38.9525 101.528 39.429 100.584C39.9603 102.567 39.8964 105.144 41.7183 105.836C40.9424 103.06 39.3307 98.6857 40.2369 94.6586C40.5894 95.4284 40.2912 96.9081 40.3716 97.8906C40.5813 100.459 41.2839 102.402 41.9875 104.22C42.426 105.353 42.5459 106.806 43.6035 107.183C42.8331 104.227 41.8256 101.509 42.1224 97.4867C42.427 97.4318 42.0511 96.6977 42.6612 96.948C42.1819 99.2746 42.4762 102.038 43.065 104.22C43.4875 105.785 44.0937 107.768 45.489 108.26C45.1558 106.886 44.1622 105.458 44.2769 104.085C44.9017 106.109 45.7007 107.958 47.105 109.203C46.3934 107.147 45.2333 104.508 45.0848 101.931C45.0482 101.297 44.8147 100.356 45.489 99.911C45.4019 103.843 46.3265 107.849 48.5863 109.876C48.1696 108.676 47.2074 107.306 47.2396 106.106C47.5139 106.774 47.4805 107.75 48.3171 107.856C48.1539 106.009 47.2364 103.506 48.1822 101.796C48.1198 103.979 48.2368 106.404 48.7209 108.26C48.9304 109.063 49.3005 110.165 49.9331 110.415C49.3368 108.944 49.2873 107.658 49.5289 106.106C49.9578 107.427 49.5398 109.596 50.6061 110.28C50.9576 109.689 50.4586 108.247 51.1449 107.991C51.5134 109.061 50.5865 110.237 51.0103 111.088C51.8619 110.493 51.7598 108.289 52.2224 106.914C52.6307 108.222 51.7052 110.301 51.9532 110.954C53.6032 109.461 53.0455 105.762 54.1073 103.682C53.8695 106.317 53.5203 108.84 52.6262 110.819C54.0154 110.457 53.6003 108.292 54.6467 107.587C54.4523 108.919 53.5576 110.267 53.4342 111.222C55.3515 109.504 56.5049 107.021 57.3398 104.22C57.0369 107.553 55.3705 109.523 53.9733 111.762C55.4733 111.241 56.1679 109.916 57.0706 108.799C56.9453 110.334 55.9446 110.994 55.1857 111.896C56.6363 111.462 57.0121 109.952 58.0135 109.068C57.94 110.432 56.5518 111.196 56.3972 112.031C58.4116 110.319 59.1694 107.351 60.1683 104.624C59.918 108.01 58.2526 109.981 56.9357 112.3C58.5635 111.639 59.1637 109.949 60.1683 108.664C59.8916 110.273 58.7097 110.977 58.1478 112.3C60.7806 110.982 61.8295 108.081 62.4576 104.759C62.7416 107.476 60.9868 110.464 59.4946 112.3C60.7636 112.132 60.9255 110.141 61.7839 110.011C61.3132 110.707 60.8288 111.389 60.4372 112.166C62.7191 110.497 63.7793 107.607 64.8812 104.759C64.4202 107.443 62.9125 110.239 61.2458 112.166C63.0757 112.059 63.8361 109.734 64.7469 108.26C64.7328 109.908 63.2906 110.843 63.1306 111.896C65.1954 110.37 66.1329 107.716 67.3055 105.297C66.7799 108.004 65.5976 110.054 64.0736 111.762C65.873 110.867 66.7478 109.049 67.709 107.317C67.4324 109.151 66.4686 110.296 65.4197 111.357C67.9962 109.804 69.1087 106.787 69.8634 103.412C70.3051 106.287 68.1221 108.845 66.901 110.954C68.7271 110.176 69.5161 108.362 70.4018 106.644C70.2425 108.325 69.2443 109.168 68.517 110.28C71.1925 109.275 71.4405 105.842 72.8261 103.547C72.5656 105.801 71.2657 107.732 70.8063 109.338C71.5526 108.423 72.1457 107.355 72.8261 106.375C72.5061 107.266 72.0069 107.979 71.614 108.799C73.5104 107.284 74.3023 104.664 75.385 102.335C75.4136 104.971 73.1066 107.146 72.4223 109.068C73.9007 108.078 74.5789 106.287 75.6542 104.894C75.384 105.88 74.8417 106.594 74.4421 107.452C75.6892 106.554 76.5223 105.006 77.0013 103.547C77.159 103.065 77.0748 102.228 77.674 101.931C77.4038 104.623 76.0423 106.224 74.7119 107.856C76.9428 107.483 77.3926 105.329 78.349 103.683ZM69.1923 41.8715C69.2083 42.6975 68.6153 44.0763 67.9805 44.6996C68.0531 43.4258 68.6301 42.656 69.1923 41.8715ZM61.1121 40.9289C61.3785 41.4407 60.0732 42.6567 59.4962 43.2179C59.5138 41.9335 60.6505 41.7687 61.1121 40.9289ZM59.4962 43.8913C59.0541 44.6167 58.8289 45.558 58.1494 46.046C58.0299 45.2711 58.6021 44.0947 59.4962 43.8913ZM57.611 47.5274C57.7674 47.5055 57.8503 47.5573 57.8805 47.662C57.6126 48.7408 57.0459 49.5208 56.6684 50.4898C56.0859 49.6281 57.3594 48.4378 57.611 47.5274ZM55.7258 52.3753C56.1177 53.0127 55.1944 54.6113 54.6486 55.2034C54.6611 53.9145 55.3724 53.3236 55.7258 52.3753ZM53.7054 63.687C52.7917 63.3401 53.6119 61.7575 53.5707 60.9935H53.9749C53.9492 61.9561 53.68 62.6738 53.7054 63.687ZM54.2441 59.7817C53.3754 59.2459 54.2162 57.4747 54.5137 56.819C55.0261 57.361 54.2685 58.887 54.2441 59.7817ZM55.1874 59.6471C54.6033 58.7842 55.7791 57.4962 55.995 56.5498C56.0589 57.3793 55.5787 58.8253 55.1874 59.6471ZM56.2642 55.0684C55.9272 53.99 56.8769 53.0955 57.2068 52.2407C57.5046 52.7402 56.864 54.5743 56.2642 55.0684ZM57.611 50.7593C56.9379 49.8842 58.4729 48.9448 58.5539 47.9315H58.9577C58.5735 48.9387 58.0678 49.8247 57.611 50.7593ZM58.9574 47.2582C58.2847 46.3827 59.8197 45.4433 59.9003 44.4301H60.3041C59.9196 45.4375 59.4139 46.3233 58.9574 47.2582ZM60.3041 43.4871C60.4596 42.2962 61.5545 42.0443 61.9204 41.0635C62.0766 41.0417 62.1598 41.0934 62.1897 41.1981C61.6837 42.0087 61.0749 43.385 60.3041 43.4871ZM51.2817 107.857C50.6286 106.509 51.3187 104.593 51.551 103.279C51.8684 104.223 51.0289 106.456 51.2817 107.857ZM85.217 47.7966C85.4239 48.4102 85.1788 49.7309 84.4087 49.8167C84.4839 48.9487 84.8758 48.398 85.217 47.7966ZM84.6786 81.7322C84.4611 81.9635 84.1154 82.0663 83.6014 82.0017C83.6242 83.0112 84.2988 83.369 84.5439 84.1565C83.3823 84.6191 83.0687 83.1361 82.1203 82.9443C82.1027 83.1862 82.2848 83.2283 82.2546 83.4831C82.0358 83.2531 81.8466 82.9928 81.8505 82.5405C82.679 82.5646 82.7195 83.3771 83.4664 83.4831C83.8246 82.9845 83.0626 82.4554 83.1972 81.7325C83.5545 81.7312 83.9663 81.7833 84.1398 81.5976C83.9904 81.0293 83.7263 80.575 83.3315 80.2515C83.3656 79.4968 82.227 77.8192 83.4664 77.5583C83.3141 79.5055 84.1809 80.434 84.6786 81.7322ZM81.8505 85.3686C82.3246 85.6269 82.7282 86.0458 82.7931 86.5801C81.4672 86.9926 80.9757 84.7296 79.831 84.9641C79.6263 84.63 79.3015 84.4164 79.2922 83.8866C80.2091 84.205 80.7415 85.4476 81.4466 85.6375C81.6413 85.6899 82.0079 85.4537 81.8505 85.3686ZM81.1771 84.1565C80.8966 83.8982 80.6158 83.6402 80.5034 83.2132C81.4164 83.2434 81.6423 83.9605 82.2543 84.2908C82.6867 83.7433 83.486 84.7444 83.601 85.3683C82.3465 85.5729 81.8701 83.6222 81.1771 84.1565ZM83.8703 51.1631C84.0881 51.1249 84.1022 51.2904 84.2747 51.2977C84.0171 52.2972 84.1125 53.6494 83.0629 53.8563C83.1497 52.7765 83.843 52.303 83.8703 51.1631ZM82.9277 55.0684H83.3315C83.0687 56.0621 83.1487 57.3986 82.12 57.6273C82.314 56.6995 82.6992 55.9625 82.9277 55.0684ZM81.8505 58.8391H82.2546C82.1939 59.9006 82.1116 60.9399 81.312 61.2628C81.0264 60.4924 81.9305 59.8431 81.8505 58.8391ZM81.1771 61.9365H81.5816C81.3461 62.8681 81.3091 63.9983 80.3694 64.2258C80.3701 63.1939 81.0569 62.8489 81.1771 61.9365ZM80.2348 64.7642C80.4523 64.7266 80.4668 64.8918 80.6387 64.8992C80.2599 65.7775 80.1535 66.9276 79.1576 67.1885C79.2505 66.1152 79.92 65.6175 80.2348 64.7642ZM78.7535 67.5923H79.1573C78.9118 68.649 78.507 69.546 77.6756 70.0166C77.4237 69.109 78.6018 68.5381 78.7535 67.5923ZM77.1372 70.9589C76.8342 71.8674 76.5229 72.7682 75.5212 72.9793C75.7377 71.9831 76.3041 71.3383 77.1372 70.9589ZM74.9824 73.5181C74.6792 74.4263 74.3682 75.3274 73.3668 75.5376C73.5457 74.5047 74.1645 73.9113 74.9824 73.5181ZM72.9627 77.2884C73.6614 77.0963 74.4511 77.0854 75.1174 77.1535C76.7048 77.3164 78.2883 77.8773 79.4265 78.3653C77.0527 78.4498 75.2825 77.2136 73.0976 77.5577C72.9431 77.5104 72.7561 77.3209 72.9627 77.2884ZM72.5588 75.9414C72.9138 76.3696 71.8167 77.6036 71.0775 77.8269C71.1578 76.7854 72.0422 76.5476 72.5588 75.9414ZM67.5757 45.6422C68.0161 46.1546 67.539 48.009 67.0369 48.4703C66.7343 47.5065 67.3598 46.5138 67.5757 45.6422ZM66.9029 49.5475C67.3431 50.0599 66.866 51.9143 66.3645 52.3756C66.0606 51.4118 66.6867 50.4188 66.9029 49.5475ZM66.0946 53.5871H66.4985C66.3684 54.5785 66.538 55.871 65.8257 56.2803C65.5138 55.4838 66.1939 54.6103 66.0946 53.5871ZM65.8257 57.2232C66.2778 57.5775 66.0098 59.4454 65.4213 59.6471C65.1058 58.888 65.6558 57.9351 65.8257 57.2232ZM65.152 60.9935C65.8948 61.2011 65.6568 63.4326 65.0174 63.5521C64.6991 62.8321 65.2783 61.9593 65.152 60.9935ZM64.2091 65.1687H64.6136C64.4424 66.2543 64.3967 67.4651 63.5364 67.8622C63.2502 66.9639 64.2715 66.2841 64.2091 65.1687ZM60.9772 75.9414C60.185 75.8489 60.6681 74.3071 60.8426 73.9219C61.463 74.0649 60.867 75.4238 61.2471 75.8074C61.0903 75.7852 61.0071 75.837 60.9772 75.9414ZM62.3243 70.0163H62.7281C62.4833 71.0726 62.0785 71.9699 61.2474 72.4406C61.0174 71.5108 62.1566 70.9781 62.3243 70.0163ZM61.6509 76.6151C62.7284 76.6144 62.9678 77.4526 63.9402 77.5583C63.3073 78.5864 61.8697 77.3058 61.6509 76.6151ZM64.8825 78.0961C65.6298 78.1298 66.3616 78.3454 67.1718 78.6352C66.7073 79.4792 65.1212 78.737 64.8825 78.0961ZM63.6707 74.0565C64.0597 72.4701 66.0349 72.4701 67.3068 71.7672C66.4005 72.5218 65.1116 72.8939 64.0748 73.5181C64.3129 74.4819 65.3557 73.5248 65.9597 73.2482C66.7378 72.8923 67.5924 72.651 68.1148 72.3056C67.8947 71.4482 67.5744 70.6909 67.3064 69.8814C68.3856 71.2567 69.4422 73.8352 68.9221 75.9411C68.4755 75.214 68.9298 73.3921 68.1144 72.7091C66.5116 72.9025 65.2253 74.6962 63.6707 74.0565ZM68.6538 79.1736C68.4177 79.0503 68.1858 78.9234 68.2494 78.5003C69.1621 78.6047 69.2948 77.9294 70.1346 77.9615C70.1342 78.8588 68.8492 78.4713 68.6538 79.1736ZM69.4612 79.039C71.7107 79.5733 73.9342 82.0172 74.4437 84.2908C73.1885 82.1351 71.7418 80.1702 69.4612 79.039ZM72.9627 79.9816C72.7452 80.0192 72.731 79.8544 72.5588 79.8467C74.9278 79.1097 77.5628 80.3973 79.1573 81.3284C77.5227 81.5674 75.8361 79.6713 72.9627 79.9816ZM77.5416 84.8298C78.7323 84.8507 79.3076 85.4875 79.831 86.1759C80.061 86.1824 80.1792 86.0757 80.2348 85.907C80.5313 86.7513 81.6452 87.4337 81.3123 88.4656C80.4407 86.8683 79.0291 85.811 77.5416 84.8298ZM77.1372 95.7374C76.0282 96.1018 75.0711 96.762 74.0399 97.3531C74.8559 95.6841 76.8811 95.73 78.6185 94.9295C80.6608 93.9875 83.583 92.5396 85.0821 90.7549C86.3752 89.2158 87.1369 87.5645 88.0451 85.907C89.1445 83.9011 89.4786 81.3036 90.3344 78.9041C90.506 76.8384 90.9416 75.6114 90.7383 73.3828C89.7048 76.1219 89.6819 79.8454 88.7188 82.8094C87.3592 86.991 84.4016 90.5403 81.312 92.9093C80.3521 92.8737 79.6299 93.7051 78.8878 93.4481C85.4637 90.6868 88.5016 84.3881 89.6611 76.2112C89.6055 75.773 89.0205 75.8636 88.7185 75.6725C89.5017 75.6953 90.0443 75.375 90.0646 74.3257C89.8885 73.6042 88.5013 74.0931 88.1797 73.5181C89.0195 73.3957 89.4153 73.7185 90.0646 73.787C90.7768 72.3329 88.6102 72.6555 88.0448 72.0364C88.9732 71.9162 89.4432 72.2539 90.0646 72.4409C90.9365 70.7594 88.6465 71.0771 87.9098 70.5554C88.6879 70.495 89.2897 70.6119 89.9303 70.6903C90.5005 69.3182 88.9189 68.6368 87.641 69.0743C88.0027 68.4254 89.0327 68.7691 89.7954 68.8048C89.9894 67.4436 88.7024 67.5637 87.506 67.5927C87.7666 66.7236 89.1213 67.5923 89.6607 67.1888C89.8281 65.7663 88.0114 66.066 87.2365 65.977C87.6843 65.4158 88.6179 65.6358 89.2566 65.8421C89.8664 64.5442 88.0374 64.2962 86.9673 64.6303C87.2718 63.8955 88.6311 64.4777 89.122 64.2264C89.2463 62.9211 87.6551 63.1255 86.6977 63.2838C86.7257 62.5369 88.2684 62.9324 88.7182 63.014C89.1872 62.9449 88.9151 62.1347 88.9871 61.6679C88.4512 61.1343 87.3068 61.416 86.6977 61.2634C87.0199 60.7182 88.4599 61.0212 88.8528 61.2634C89.4943 59.7024 87.8748 59.2015 86.5634 59.5135C86.7154 58.7614 88.0319 59.1916 88.4483 59.3785C88.7667 59.0624 88.4264 58.7164 88.4483 58.301C87.8462 57.9566 86.9258 58.0138 86.159 58.1664C86.5043 57.4722 87.621 57.812 88.1794 57.6276C88.1158 56.4062 87.0074 56.5398 86.0247 56.8193C86.1837 55.887 87.5851 56.669 87.9095 56.1463C87.8318 55.0566 86.4921 55.2294 85.3513 55.2034C85.4856 54.3919 87.0938 54.8911 87.5057 55.0684C87.8713 54.6357 87.3068 54.2698 87.3711 53.722C86.8728 53.4489 86.5692 53.8136 85.89 53.722C85.8467 53.0952 86.8214 53.4865 87.1019 53.1833C87.0958 53.075 87.1125 52.9439 87.1041 52.8382C87.0595 52.7714 87.0154 52.7036 86.9669 52.6448C87.0649 52.657 87.0958 52.7361 87.1041 52.8382C88.0721 54.2826 88.2645 57.4892 88.9867 59.5128C89.3125 59.2854 89.3064 58.6698 89.2042 58.1256C90.3139 62.9687 91.1906 69.9135 91.1415 75.8074C91.5989 76.4271 92.6331 76.4708 92.7577 77.4231C92.0497 77.3225 91.7833 76.7808 91.1415 76.6148C90.7569 76.634 90.895 77.1763 90.8722 77.558C91.623 77.9737 92.6071 78.1568 92.7577 79.1736C92.0086 79.0246 91.7117 78.4235 91.0072 78.2307C89.6607 79.3474 91.8858 79.7995 92.0844 80.6547C91.5154 80.5056 91.0766 80.2258 90.4687 80.1159C89.4847 81.3084 91.7512 81.2622 91.8148 82.2706C91.2806 81.9969 90.6984 81.7707 89.93 81.7319C89.5968 81.8472 89.9695 82.6693 89.6604 82.8094C90.1642 83.4275 91.3442 83.3697 91.5456 84.2904C90.8539 84.0842 90.4225 83.618 89.5255 83.6174C87.419 88.2102 85.3474 92.0082 80.9072 94.2558C80.7646 94.3284 80.5108 94.1822 80.3685 94.2558C79.2389 94.8389 78.4351 95.3111 77.1372 95.7374Z" fill="white"/>
<path d="M15.7302 92.102C15.8124 92.1087 15.8895 92.1216 15.8645 92.236C17.0673 91.5934 18.3247 90.0957 19.5005 89.004C18.9647 90.2277 17.5389 91.2497 17.2112 92.236C18.3906 92.2922 18.9284 90.7787 19.7698 89.9466C20.4749 89.2505 21.2855 88.5282 22.0591 88.0618C20.9944 89.601 19.2217 91.1488 18.423 92.5058C19.0209 92.2954 19.1863 91.6526 19.7698 91.4283C19.6583 92.1248 18.8892 92.1637 18.6922 92.7744C19.6788 92.7288 19.6698 91.6873 20.4428 91.4283C20.1363 92.1088 19.5641 92.5248 19.231 93.1789C21.1387 92.6629 21.6803 90.78 22.5975 89.2739C22.5159 91.1671 21.3912 92.0175 20.5774 93.1789C21.8156 93.1156 21.7976 91.7949 22.7325 91.4283C23.0968 92.3208 22.7829 92.875 22.1937 93.4481C23.6738 92.5939 24.0988 90.6852 25.0218 89.2739C24.6935 91.3615 24.068 92.4393 23.8097 93.8519C24.6215 93.317 24.8888 92.2382 25.5602 91.5632C26.0971 93.2865 23.6853 93.8876 23.6747 95.0637C26.1289 94.3306 26.4412 91.4563 27.1762 89.004C27.7288 90.7993 26.4196 92.8657 26.0987 94.1215C26.7827 93.5933 27.0156 92.6147 27.58 91.9671C27.7262 92.9238 26.7512 93.4683 26.9067 93.9869C27.6135 93.3999 28.2309 92.4127 28.5226 91.2934C28.6852 90.6708 28.3363 89.716 29.0614 89.4082C29.1851 91.418 28.1365 92.9713 27.8493 94.1215C28.6952 93.7556 28.6582 92.5065 29.3306 91.9671C29.4765 93.4153 28.1606 94.1167 28.1191 94.9298C29.6349 94.0669 30.0037 92.0567 30.8123 90.4854C30.8049 91.366 30.5283 91.8823 30.6777 92.5058C31.0658 92.3545 30.7696 91.5202 31.2161 91.4283C31.6209 92.1133 31.0301 92.8175 30.9472 93.4481C32.3463 93.0539 31.8686 90.6794 32.294 89.6777C32.3245 89.9161 32.1581 90.3524 32.5632 90.2165C32.3447 87.7967 33.9437 86.068 33.5058 84.2911C33.7075 84.2686 34.0028 84.3389 34.0445 84.1568C33.2706 83.4224 33.2134 84.9034 32.5635 85.0994C32.8999 84.4035 33.1974 83.6681 33.3715 82.81C31.7886 82.0965 31.7459 84.7624 30.9475 84.8302C31.4359 83.7835 31.5682 82.5215 31.4863 81.329C30.7284 82.6356 30.3012 84.2737 29.3313 85.3689C29.5982 83.9207 30.4602 82.3802 30.4088 81.0591C29.0354 82.11 28.354 83.8522 26.9076 84.8302C27.4894 83.3025 28.7784 82.4811 29.0624 80.6553C28.0761 80.1753 27.8152 81.3101 27.4464 81.8674C26.5767 82.2096 26.2683 83.1133 25.4263 83.4831C26.0845 82.3889 27.9241 81.1973 27.4464 79.847C26.0778 80.7687 24.9598 82.6568 23.2719 82.81C24.423 81.4925 26.0646 80.6653 26.773 78.9047C26.6686 78.8745 26.5073 78.9009 26.5038 78.7698C25.1683 79.9036 23.8823 81.0861 21.9254 81.5979C23.3634 80.5673 24.9344 79.6697 25.6958 77.9625C25.4642 77.9695 25.3505 77.859 25.292 77.6929C24.2074 78.5565 22.7042 80.3781 21.2518 79.9823C21.6331 79.9598 21.813 79.7355 22.1947 79.713C22.87 78.6577 24.6819 78.1041 24.6186 76.7503C23.8913 76.6646 23.3098 77.594 22.4639 77.9621C21.5685 78.3512 20.5501 78.5057 19.7704 78.6355C20.9755 77.5014 23.9806 77.4661 23.8103 75.4033C22.4449 75.9311 20.7503 77.2756 18.6929 77.5583C19.968 76.1396 22.5677 76.0458 23.2715 74.0568C21.8072 74.718 19.5214 75.9417 17.8849 75.5379C19.8501 74.8545 22.1494 74.5056 23.1366 72.8447C21.7918 73.1807 18.9984 74.6085 17.3461 74.1914C18.3167 73.8178 19.4507 73.6479 20.4434 73.2482C21.3594 72.88 22.5943 72.4958 22.8674 71.4976C21.6286 71.8983 19.3148 72.5816 18.1541 72.171C19.6528 71.5603 21.9091 71.7065 22.8674 70.5554C21.7516 70.7674 18.582 71.4469 17.3461 71.0941C19.0283 70.2627 22.1057 70.8262 23.002 69.2086C21.626 69.5845 19.2715 69.6969 17.8846 69.6131C19.1131 68.5073 22.5587 69.6186 23.2712 67.9968C21.8981 68.1555 18.467 68.7836 17.0766 68.1314C19.3142 67.6306 22.5269 68.1057 23.5404 66.3808C21.6112 66.4724 19.4437 67.0417 17.4807 66.6504C18.1972 66.546 19.0026 66.1656 19.9047 65.977C21.628 65.6169 24.0246 66.1158 24.483 64.496C22.646 64.8144 20.5684 65.1934 18.6926 64.7649C20.8948 64.3639 23.4955 64.3607 25.1564 63.4188C23.1549 63.2954 20.5906 64.1329 18.4233 63.5531C20.0615 63.0744 23.3628 63.2344 24.8875 62.207C23.7451 62.0222 20.7882 61.8722 19.5009 60.9948C21.9913 61.3161 23.0659 61.4864 25.6955 61.6685C24.3388 60.6459 21.8393 60.7664 20.5781 59.6484C22.7893 60.0243 24.5846 61.1885 27.0419 60.5913C25.1754 59.8993 22.8565 59.6593 21.2514 58.7058C23.6824 58.9368 25.7626 60.2842 28.1194 59.7833C27.6722 59.4222 26.8264 59.4605 26.3685 59.11C27.2909 59.0852 27.8274 59.4293 28.9271 59.5144C28.4944 58.763 27.4592 58.8921 26.7724 58.7058C24.0811 57.9765 21.1698 56.4759 19.6351 54.9354C22.3996 56.3541 25.9117 58.4324 29.4659 58.1674C27.7837 57.3353 25.1982 56.6892 24.483 55.3393C25.9474 55.9121 27.9016 57.3748 29.6005 56.8206C27.0869 55.4736 23.7563 54.2261 22.5979 51.9727C24.1978 53.6497 26.4322 54.6922 29.1966 55.205C27.8483 53.7246 25.5509 52.4765 24.8872 50.7609C26.4714 52.364 28.5888 53.4335 30.5431 54.6665C28.8963 52.7669 27.137 50.98 26.099 48.4719C27.3911 49.828 28.149 51.7183 30.0043 52.5118C29.4157 50.99 27.9508 49.6281 28.1191 47.7985C28.3996 49.1337 28.9708 50.1785 29.8694 50.8958C29.88 52.0636 31.174 52.3711 31.6203 53.3198C32.1372 54.4195 32.1815 56.6452 31.8895 58.0331C31.3707 60.4994 28.6164 61.3881 26.7721 63.2854C25.344 64.7536 24.1194 67.2075 23.8093 69.4798C24.4638 69.2787 24.7658 68.0154 25.2907 68.133C24.476 69.1588 23.5925 70.1162 23.6744 72.0383C24.5679 70.5522 25.5708 68.4588 27.041 67.9984C24.9746 69.767 22.7566 72.8158 24.6173 75.6747C24.7709 74.4282 24.8949 72.3721 25.8291 71.4999C25.2856 73.0911 24.341 76.4952 25.9638 77.6945C25.6881 75.5404 25.8391 72.0672 27.7143 71.2307C26.1315 72.775 25.2897 77.4857 27.58 78.9067C27.0091 77.4825 26.7608 75.0206 27.58 73.6543C27.4541 75.0267 27.2009 76.1415 27.4451 77.5602C28.2521 78.055 27.7294 79.8791 29.196 79.7146C28.4992 78.5681 27.7988 76.066 28.6572 74.5972C28.4796 76.7037 28.647 79.6057 30.812 80.1185C30.1675 79.2742 28.823 75.9809 30.004 74.1937C29.8305 75.1964 29.7907 76.3185 30.004 77.291C30.2674 78.4929 30.8904 79.9344 32.0241 80.1188C31.529 78.8864 30.2745 77.0498 31.0812 75.4055C31.041 77.6296 32.2159 79.5916 33.6397 80.2537C33.8328 79.4766 33.0772 79.6488 32.9664 79.1762C32.4417 78.2131 31.4388 75.747 32.4276 74.5975C32.1471 77.3469 33.2423 78.721 34.8519 79.5804C34.3568 78.3689 33.3063 76.9967 33.6397 75.4055C34.0275 76.3584 33.9504 78.3637 35.2557 77.9644C35.096 77 34.2791 75.9803 34.717 74.8667C35.0029 76.4217 35.328 77.9371 37.0063 78.0987C36.5266 77.0594 35.5651 75.6121 36.1983 74.5979C36.3564 75.5167 36.6754 76.2752 37.5447 76.4827C37.5197 75.5616 36.8068 75.0855 37.1406 74.194C36.1508 72.5337 36.223 69.6953 36.198 67.7298C36.1671 65.3075 37.4821 61.7736 38.2181 59.7846C38.4761 59.0878 38.4035 58.3299 38.6219 57.7648C38.8426 57.1946 39.383 56.8784 39.6995 56.2835C40.5396 54.7051 40.8984 52.8803 41.8542 51.7051C41.7607 51.4394 41.1027 51.7382 41.0462 51.4359C41.9859 51.3883 42.8848 51.2997 42.9314 50.3587C42.2747 50.2016 41.486 50.6115 41.1808 50.3587C42.1385 49.4726 43.4724 50.589 44.0086 49.2812C43.2723 48.895 41.6434 49.402 40.9113 49.0119C41.9804 48.4202 44.2887 49.0675 45.0858 48.204C43.8611 47.466 42.2927 47.8156 41.0459 47.5306C42.5057 46.8261 44.699 47.4066 46.163 47.2614C45.479 46.0155 42.7826 46.7814 41.7189 45.9149C44.193 45.4944 46.3182 47.0827 47.6444 45.9149C46.5511 45.2573 44.6576 45.4006 43.4698 44.8374C45.6393 44.377 48.2352 46.1781 49.1257 44.972C48.1536 43.9687 46.0236 44.1239 44.547 43.6256C46.5983 43.0785 49.1241 44.5884 50.6067 44.164C49.0011 43.2561 47.0144 42.729 45.2204 42.0093C47.4847 42.124 49.4251 43.2802 51.1455 43.4904C50.7163 43.0798 51.417 43.4473 51.8189 43.3561C50.6006 42.0161 48.3354 41.7221 46.5668 40.9321C49.2012 41.0356 50.6916 42.2837 52.8961 42.8173C52.6423 42.1176 53.6421 42.9111 53.839 42.2785C52.356 41.2026 50.3067 40.6934 48.5869 39.8546C51.4009 39.7791 52.987 41.6489 55.1857 41.7401C54.7742 41.2984 53.9836 41.2364 53.7041 40.6626C54.4125 40.9418 55.1803 41.1621 55.8585 41.4709C53.8673 39.6467 50.4577 39.2407 48.0479 37.8348C50.6247 38.2659 53.0834 39.532 55.1857 39.9895C54.8924 39.6988 54.4822 39.5259 54.1079 39.3162C55.1825 39.4132 55.7631 39.8629 56.936 40.1241C55.4791 38.6637 52.9645 38.2605 50.8763 37.431C53.6922 37.4432 55.1665 38.7973 57.4748 39.3162C57.3919 38.1872 55.675 38.6919 55.1861 37.9697C56.3577 37.6976 56.9389 38.7269 57.7443 38.3739C56.2006 37.4037 54.1153 36.9754 52.4923 36.0845C54.708 36.4726 56.4676 37.316 58.1478 38.2393C56.6533 35.7389 54.0382 34.359 52.6265 31.7754C52.0274 31.5216 51.6232 31.0728 51.0106 30.8328C50.3144 31.0012 48.9558 32.1635 48.452 31.2366C48.8729 30.9395 49.7432 31.0914 50.068 30.6979C48.4282 29.6445 46.3159 29.0636 43.6041 29.0819C43.5 29.426 44.1313 29.701 43.7387 29.8899C43.4743 29.7052 43.653 29.0777 43.2003 29.0819C42.8231 29.1536 42.4999 29.2795 42.1228 29.3511C42.0425 29.5908 42.5173 29.9105 42.1228 30.0242C42.2172 29.2246 41.1872 29.2483 40.6414 29.4854C40.2732 29.7225 41.0764 30.2931 40.6414 30.563C40.5126 29.8391 39.8768 29.622 39.0254 29.6204C38.8587 30.1983 39.5497 30.6118 39.1597 30.9668C38.9827 30.6054 38.7983 30.2507 38.621 29.8896C38.0478 29.8096 37.7304 29.9863 37.2745 30.0239C37.1236 30.6744 38.053 30.9437 37.6787 31.3706C37.1605 31.2154 37.3944 30.3079 36.7358 30.2931C36.3554 30.1819 36.3872 30.483 36.0624 30.4277C36.0181 31.28 36.6195 31.4866 36.6009 32.3129C36.047 32.0141 35.9885 31.2196 35.6583 30.6969C35.0874 30.6648 34.5913 30.7075 34.4461 31.1011C34.7398 31.5258 35.0495 31.9341 35.1195 32.5821C34.5868 32.3068 34.5004 31.5852 34.1769 31.1011H33.234C33.2674 31.8782 33.9906 32.675 33.7724 33.2558C33.3085 32.5529 33.2738 31.4201 32.2914 31.2357C31.6187 31.8133 32.4948 32.3444 32.5606 32.9863C31.9608 32.7045 31.9499 31.2125 30.9447 31.7744C30.9633 32.5847 31.8908 33.5957 32.0222 34.7372C31.2091 33.934 31.1111 32.4163 30.0021 31.9091C29.5459 32.2904 30.3744 32.9834 30.1363 33.1209C29.863 32.7212 29.497 31.8474 28.7899 32.3129C28.8465 33.347 30.3102 34.8226 30.2713 35.949C29.275 34.9068 28.9647 32.5223 27.4432 32.4478C27.0329 33.1948 28.0475 33.2587 27.9819 34.0638C27.4702 33.6889 27.2533 32.5689 26.2314 33.1209C26.586 34.2932 27.9977 35.1243 27.8473 36.3531C26.9035 35.5226 26.5179 33.4955 25.1542 33.525C25.024 34.057 25.9544 34.5791 26.0971 35.2756C25.4099 34.9087 25.2592 33.3596 24.077 33.9288C24.6026 35.1101 25.8805 36.2542 26.0971 37.2954C24.8425 36.6124 24.6401 34.1836 22.9998 34.333C23.1138 35.2509 23.944 35.4533 24.2116 36.2182C23.472 35.7456 23.1267 34.8788 22.1915 34.6022C22.284 35.602 23.6323 36.472 24.0766 37.5653C22.8571 36.8543 22.6319 35.149 20.8447 35.0064C21.0275 36.215 22.115 36.5189 22.4607 37.5653C21.4342 37.0204 21.1824 35.7006 19.9021 35.4102C19.9134 36.3155 20.9507 36.8386 21.5181 37.5653C22.2425 38.4927 22.9824 39.4157 23.6728 40.2584C21.7767 39.144 21.0548 36.1482 18.5557 36.0839C19.1202 36.8671 20.5675 37.4817 20.5755 38.3732C19.7575 37.6983 19.1009 36.1828 17.7474 36.4877C17.9148 37.2636 18.7578 37.3632 19.2287 37.8345C20.1286 38.7343 20.6266 40.0178 21.5181 40.9318C20.9276 40.3551 20.3374 39.7781 19.9021 39.0463C18.8561 38.699 17.6989 36.2092 16.6699 37.5653C17.4261 38.0224 18.5926 38.7828 18.69 39.4504C17.865 38.8387 17.2918 37.9755 15.9968 37.8345C16.9503 38.7665 18.6836 39.6352 18.9592 40.7972C17.6452 40.1238 16.4973 38.0414 14.7847 38.6425C15.0166 39.534 16.8424 39.5452 16.6699 40.393C15.9027 39.9156 14.7805 38.7745 13.8418 39.3155C15.1034 40.5228 16.985 41.1101 17.882 42.6821C16.8215 42.2159 15.6001 40.7596 14.3805 40.2581C14.0242 40.1116 12.9281 39.5802 12.63 40.3927C13.8469 41.1059 15.1914 41.6916 15.8619 42.9513C14.741 42.2634 13.0791 40.1582 11.6874 41.0661C13.9018 42.1288 15.8776 43.4296 17.2086 45.3755C16.5391 45.3267 16.4077 44.7398 16.1311 44.2983C15.5377 43.784 14.5701 43.0682 13.5725 42.5474C12.745 42.1153 11.2572 41.085 10.6102 42.1433C12.0893 42.6846 13.8784 43.6324 14.3805 44.7018C14.0124 44.1515 12.9763 43.6715 12.0915 43.2205C11.412 42.8745 9.94385 41.7083 9.66756 43.0859C12.5316 43.7255 14.9122 45.5587 16.1314 47.395C14.1865 45.7019 11.8853 43.6545 8.72497 43.6246C9.75816 44.8805 11.6967 45.231 12.7649 46.4524C11.2103 45.7627 10.0929 44.6357 8.32082 44.1631C8.06637 44.3578 7.72391 44.4641 7.78205 44.9711C10.9022 45.442 13.7746 46.8784 14.7847 49.011C14.4824 48.6846 14.2189 48.3199 13.9767 47.9338C12.6325 47.2344 10.8508 46.4694 9.26341 45.9137C8.63887 45.6949 7.35831 44.8461 7.10868 45.9137C8.25078 46.2976 9.38324 46.6914 10.206 47.3947C8.96592 47.1088 8.16083 46.3875 6.70485 46.3172C6.65088 46.6674 6.30295 46.7236 6.3007 47.1252C9.12077 47.297 12.3546 48.7389 13.8421 50.2225C11.6305 48.8883 9.13972 47.8329 5.76226 47.6642C5.86249 48.0787 5.3928 47.9229 5.49304 48.3373C7.45629 48.6637 9.36686 49.0421 10.6105 50.0882C9.94578 49.8521 8.81621 49.3747 7.78238 49.1453C6.86581 48.9419 5.30735 48.2865 5.08921 49.4145C8.16147 49.6191 10.489 50.5682 12.2264 52.108C10.5408 51.4182 7.77916 49.8514 5.49336 49.9529C5.03652 49.9735 4.44186 49.8405 4.28122 50.4917C5.51553 50.6045 6.47643 50.99 7.37887 51.4346C6.41025 51.6174 5.21707 50.9193 3.87739 51.0308C3.75756 51.3148 3.46746 51.4285 3.47324 51.8388C3.93619 51.8979 4.22789 51.7854 4.55077 51.7041C6.64156 52.3515 9.54934 52.1816 10.7454 53.7243C9.41505 53.1187 7.1678 52.5147 5.22382 52.3778C4.67734 52.3393 3.51597 52.0897 3.2037 52.7817C3.98148 53.171 5.19812 53.1216 5.89719 53.5897C4.94464 53.6333 2.79794 52.6265 2.79987 54.1284C5.13868 53.8987 7.24586 54.5849 9.39834 54.9367C7.23494 55.3444 4.30114 53.7885 2.39572 55.071C2.95857 55.6422 5.41754 54.7314 6.16641 55.4752C4.6465 55.7058 2.22705 55.0373 1.85696 56.4174C4.07176 55.8199 6.24576 56.6314 8.45575 56.8216C7.05085 57.4818 2.50816 55.7948 1.58773 57.6299C2.79409 57.3729 4.05505 57.2479 5.35843 57.495C4.2189 57.8368 2.50752 57.6068 1.45312 58.0337C1.56428 58.4147 1.26326 58.3829 1.31851 58.7071C3.10025 58.5532 5.63761 58.3248 6.97439 58.842C5.09692 59.3435 1.74772 58.3736 0.914362 59.9195C1.56846 59.9661 3.54874 59.5196 4.55044 59.9195C3.28884 60.4085 0.821195 59.6915 0.645142 61.2657C2.61386 60.572 5.07764 60.5961 7.10868 60.7269C5.40116 61.6679 1.67094 60.5862 0.645142 62.2086C2.3652 62.2182 4.154 61.6496 5.89687 62.2086C4.0255 62.4649 1.05797 61.9348 0.914041 63.5547C2.98299 62.9484 5.64403 62.3451 8.05128 63.0159C5.59649 63.3439 2.66269 63.1936 1.18358 64.4976C2.20039 64.5458 3.80125 63.9868 5.08889 64.4976C3.90631 64.9306 1.57488 64.2152 1.31819 65.5751C3.18956 65.3223 5.73174 64.7038 7.78205 65.0363C7.11832 65.5864 5.98361 65.3036 4.95395 65.4402C3.64994 65.6127 1.73712 65.7287 1.58741 66.9212C2.6643 66.6057 4.19898 66.0332 5.35811 66.2482C4.26098 66.8573 2.36712 66.6687 1.85663 67.8641C3.91595 67.4944 6.59337 66.3227 8.85926 67.0558C6.48607 67.2865 4.5074 67.911 2.3954 68.4026V69.2102C3.82246 68.8864 5.66909 68.2657 7.10868 68.4026C5.64532 69.0486 3.38232 68.8951 2.66462 70.2874C4.31656 70.0474 7.03447 69.0069 8.99419 69.0759C7.65612 69.6802 6.28978 69.9077 4.95395 70.2874C4.18067 70.5078 2.84742 70.6713 2.93384 71.6342C4.25135 71.3579 5.4532 70.9727 6.70453 71.23C5.53898 71.7254 3.71997 71.5674 3.06845 72.5765C3.03825 72.8312 3.22041 72.8739 3.20306 73.1152C5.0256 72.6031 7.12025 71.6467 9.12816 71.7688C7.37373 72.7975 4.42579 72.6323 3.33767 74.3273C4.7432 73.9306 7.13246 72.651 9.26277 72.9812C7.3628 73.7741 4.61952 73.724 3.60689 75.4049C5.50171 74.8529 7.13278 73.8268 9.26277 74.1934C7.35027 74.8388 4.88295 74.931 3.87611 76.4821C5.42878 76.1878 7.91923 74.9641 9.80121 75.001C9.04848 75.3978 7.9398 75.8302 6.8385 76.2132C5.91004 76.5357 4.20508 76.492 4.41455 77.6942C6.08963 77.4394 7.41549 76.8342 8.85861 76.3478C7.96646 77.61 5.61608 77.4141 4.68409 78.6371C6.55097 78.6567 8.84255 77.2345 10.6095 77.1558C9.434 78.5674 6.45683 78.3281 5.49207 79.7146C6.94162 79.9087 8.11039 78.7737 9.39738 78.9063C8.39503 79.5649 6.85842 79.6889 6.16545 80.6569C8.30572 80.5923 10.2185 79.1479 12.3601 78.6371C11.6835 79.4438 10.5787 79.776 9.53199 80.2531C8.55309 80.6993 7.24522 80.9657 6.70421 81.869C6.80894 81.8986 6.86066 81.9818 6.8385 82.138C8.42587 81.8392 10.1691 80.9804 11.2826 80.6569C10.5414 81.9359 8.49141 81.9063 7.37726 82.8116C7.58223 83.7629 8.73782 83.1149 9.26245 82.9463C11.3728 82.2671 13.6535 81.0187 14.9183 80.2531C13.3814 82.1277 10.9292 83.0863 8.18524 83.7539C8.12067 84.178 8.37704 84.2805 8.45446 84.5622C10.0235 83.5727 12.0517 83.0423 13.7065 82.138C12.4497 83.3954 10.6272 84.0864 8.85829 84.8318C8.85958 85.189 8.80753 85.6009 8.99323 85.7744C11.3638 85.1373 13.5269 83.5753 15.3225 82.8116C14.4663 84.0964 13.0929 84.6043 11.6864 85.2356C10.9693 85.5575 9.69519 85.845 9.66628 86.8516C10.8376 86.7202 11.9518 85.8168 12.629 85.6397C12.0424 86.3995 10.5379 86.2418 10.3396 87.3903C11.4461 87.4253 12.3678 86.3012 13.302 85.6397C14.3465 84.8992 15.3636 84.1638 16.2647 83.7542C14.926 85.5575 12.7241 86.4978 11.2822 88.1986C12.5712 88.695 13.5022 86.6 14.3792 86.4481C13.6236 87.3524 12.6817 88.0721 11.9553 89.0063C13.1812 89.4275 14.0837 87.5795 15.1875 86.8519C15.9554 86.3456 16.516 85.7348 17.2073 85.3708C16.0691 87.195 14.2125 88.3008 12.8982 89.9489C13.9642 90.0674 14.439 88.5636 15.4568 88.199C14.9925 89.1261 14.0599 89.5852 13.5713 90.4876C15.629 90.5969 16.3839 88.287 18.0153 87.5253C18.1515 87.1677 18.2367 86.7594 18.6884 86.7169C18.0458 88.8572 16.0415 89.6366 14.7831 91.161C16.177 91.2388 16.3961 89.4721 17.3416 89.5451C16.958 90.3736 16.1639 90.7912 15.7257 91.5655C16.1388 91.8803 15.8304 91.6956 15.5911 91.9693C15.6775 91.9745 15.7549 91.9867 15.7302 92.102ZM51.8202 32.1757C51.354 32.6769 49.9099 32.8353 49.2616 32.7141C49.7387 32.159 50.8577 32.2454 51.8202 32.1757ZM45.7605 33.5221C46.624 33.4881 47.1692 33.1353 48.0495 33.118C47.7038 33.5311 46.1132 34.4095 45.7605 33.5221ZM47.6456 31.7716C47.2996 32.1844 45.709 33.063 45.3563 32.1757C46.2199 32.1413 46.7651 31.7889 47.6456 31.7716ZM44.0096 34.5993C44.4375 35.0089 42.3952 35.7755 41.8548 35.6769C42.1205 34.865 43.2941 34.9611 44.0096 34.5993ZM43.7403 33.3875C43.0888 33.9205 41.9865 34.6623 41.1818 34.5993C41.6271 33.7875 42.6879 33.5918 43.7403 33.3875ZM40.3738 36.6194C39.7679 37.1547 38.8259 38.0086 38.0845 37.9659C38.5076 37.1775 39.3994 36.8572 40.3738 36.6194ZM39.5658 35.5422C38.9069 36.0241 38.3052 37.2186 37.4111 37.0233C37.8589 36.2593 38.5076 35.6958 39.5658 35.5422ZM37.0069 39.0434C36.9931 39.613 36.223 39.4263 36.0643 39.8514C35.8976 39.632 36.5437 39.0797 37.0069 39.0434ZM35.9297 38.2354C35.2721 38.8796 34.8002 39.7094 33.9096 40.1206C33.8103 39.2358 35.1208 38.655 35.9297 38.2354ZM31.8898 47.7966C31.0352 47.2402 32.0527 46.0618 32.294 45.3727C32.8025 45.7835 31.8381 46.9549 31.8898 47.7966ZM33.6404 42.6795C33.9652 43.2337 33.1392 43.7907 32.967 44.2958C32.2181 43.7361 33.5437 43.2549 33.6404 42.6795ZM32.8324 41.1981C32.1247 41.6126 32.1986 42.8086 31.2161 42.9487C31.5387 42.1488 31.9229 41.4108 32.8324 41.1981ZM31.3511 51.0289C30.6549 50.8065 31.0234 49.5073 31.2161 49.0087C31.7234 49.134 31.5075 50.687 31.3511 51.0289ZM30.9472 44.0259C31.4002 44.3388 30.5392 45.5648 30.4085 46.181C29.4498 45.7566 30.7043 44.5419 30.9472 44.0259ZM29.7354 47.5274C30.2073 47.696 29.7685 49.136 29.7354 49.6821C29.1472 49.3175 29.5941 48.0212 29.7354 47.5274Z" fill="white"/>
<path d="M50.8776 27.5967C51.6165 26.7187 52.3294 25.0995 53.3018 24.9035C52.18 25.8468 51.4597 27.1913 50.8776 28.6739C51.1812 28.8644 51.1426 29.3968 51.551 29.4819C52.2915 28.6064 52.4537 27.1527 53.5711 26.6541C53.1695 27.7403 51.3797 29.4199 52.3593 30.5594C53.29 29.5606 53.7134 28.0532 55.0527 27.4624C54.0979 28.5277 53.2241 29.6737 52.7634 31.2328C53.0195 31.5152 53.1303 31.9431 53.706 31.9062C54.1824 30.7666 54.8764 29.8446 55.7261 29.0781C55.3245 30.2963 53.121 31.9611 54.3794 33.118C54.921 32.2666 55.6387 30.8775 56.5341 30.829C55.7971 31.483 55.2285 32.3061 54.7835 33.2529C55.0457 33.5292 55.2037 33.9099 55.7264 33.926C56.2257 33.5257 56.6835 32.3726 57.2075 32.4449C56.7619 33.3419 55.1816 34.7291 56.8036 35.4073C57.2961 34.8679 57.3527 33.8913 58.1497 33.6564C58.0739 34.7815 59.4965 35.5304 60.4391 36.0807C60.4992 35.7813 60.0234 35.3504 60.3045 35.2727C61.2024 35.6319 61.7566 36.3348 62.8633 36.4845C61.4122 34.7031 58.5642 33.6018 58.0155 31.3674C58.8514 32.6415 60.2293 34.0901 61.5163 34.4647C61.4427 34.1267 60.5563 33.9089 60.8429 33.6564C61.7238 34.2575 62.7917 34.6703 63.9406 35.0032C63.0259 33.8074 60.813 33.1938 60.4391 31.9058C61.4524 32.8227 62.4624 33.7432 64.2095 33.9256C63.5544 33.145 62.2468 33.0158 61.7858 32.0404C62.6414 32.6737 63.6212 33.0704 64.7489 32.9834C63.1303 32.1773 61.4379 30.7284 60.8432 29.3476C61.9545 30.4807 62.8579 31.822 64.7489 32.1757C64.4096 31.5251 63.0869 31.1464 63.1326 30.5594C63.7491 30.9755 64.363 31.3937 65.2876 31.5023C64.629 29.9558 62.0727 29.1545 61.5166 27.0583C61.8607 27.3426 62.1122 27.7197 62.3249 28.1355C63.3655 28.6684 64.8182 30.7843 66.0953 29.7514C65.508 28.8573 63.6916 28.0266 63.1326 26.6541C64.3807 27.3082 65.3281 29.4906 67.0376 28.8088C65.6481 27.3709 63.5171 25.956 62.9983 24.0955C64.5712 25.3947 65.4743 27.3647 67.5763 28.1355C67.6049 27.9845 67.726 27.926 67.8459 27.8662C67.3142 26.1992 65.6253 25.6881 65.0181 24.0959C66.0362 25.1467 67.149 26.3438 68.7885 26.3849C68.7534 25.3408 68.1209 24.1823 67.0376 24.6343C67.2165 24.8239 68.0065 25.0899 67.7112 25.3074C67.08 24.7265 66.0224 24.5723 65.9607 23.4222C63.8557 21.9742 62.7178 19.4706 60.4391 18.1704C59.2536 17.4939 56.6314 19.062 55.7261 19.6515C54.7379 20.295 53.715 21.6459 52.898 22.6142C51.7039 24.0297 49.8267 25.8924 50.8776 27.5967Z" fill="white"/>
<path d="M82.5241 35.6769C82.3391 35.683 82.2282 35.6136 82.1203 35.5423C81.8533 35.7748 81.2731 36.3933 81.4466 36.6198C81.7043 36.384 82.1489 36.3342 82.5241 36.2156V35.6769Z" fill="white"/>
<path d="M79.561 38.9088C80.9868 38.6598 82.668 36.8623 83.8702 37.6966C83.5913 37.2575 83.4802 36.6503 82.9276 36.4845C81.6579 36.9654 80.2698 37.3278 79.1572 37.9659C79.0978 38.4748 79.4223 38.5984 79.561 38.9088Z" fill="white"/>
<path d="M37.0069 39.0434C36.5433 39.0797 35.8972 39.632 36.0643 39.8514C36.223 39.4263 36.9931 39.613 37.0069 39.0434Z" fill="black"/>
<path d="M80.3694 43.8913C80.3668 43.49 80.3822 43.0708 79.9652 43.0833C79.8451 43.9523 78.3711 44.1798 78.215 44.5647C78.9163 44.3237 79.554 44.0192 80.3694 43.8913Z" fill="white"/>
<path d="M86.9679 52.6448C87.0161 52.7036 87.0604 52.7714 87.1051 52.8382C87.0967 52.736 87.0656 52.657 86.9679 52.6448Z" fill="black"/>
<path d="M80.9078 94.2564C85.348 92.0088 87.4198 88.2108 89.526 83.618C90.423 83.6187 90.8545 84.0848 91.5462 84.2911C91.3447 83.3703 90.1647 83.4278 89.661 82.81C89.97 82.67 89.5974 81.8482 89.9305 81.7325C90.6993 81.7714 91.2811 81.9975 91.8154 82.2713C91.7518 81.2628 89.4849 81.3091 90.4693 80.1165C91.0774 80.2264 91.516 80.5062 92.0849 80.6553C91.8867 79.8001 89.6613 79.3481 91.0077 78.2314C91.7123 78.4241 92.0091 79.0252 92.7583 79.1743C92.6076 78.1575 91.6236 77.9743 90.8728 77.5586C90.8956 77.177 90.7575 76.6347 91.142 76.6154C91.7839 76.7815 92.0502 77.3228 92.7583 77.4237C92.6333 76.4715 91.5995 76.4275 91.142 75.8081C91.1908 69.9141 90.3144 62.9693 89.2048 58.1262C89.3069 58.6705 89.313 59.286 88.9873 59.5135C88.2651 57.4895 88.0723 54.2829 87.1047 52.8389C87.113 52.9449 87.0966 53.0756 87.1024 53.1839C86.8219 53.4868 85.8472 53.0959 85.8906 53.7227C86.5698 53.8142 86.8737 53.4496 87.3716 53.7227C87.3074 54.2707 87.8719 54.6363 87.5063 55.0691C87.0944 54.8917 85.4861 54.3925 85.3518 55.204C86.4927 55.23 87.8323 55.0572 87.9101 56.1469C87.5856 56.6696 86.1842 55.8873 86.0252 56.82C87.008 56.5405 88.1163 56.4068 88.1799 57.6283C87.6216 57.8127 86.5049 57.4728 86.1595 58.167C86.9264 58.0144 87.8468 57.9573 88.4488 58.3017C88.427 58.7171 88.7672 59.0627 88.4488 59.3792C88.0325 59.1922 86.7156 58.762 86.564 59.5141C87.8754 59.2022 89.4949 59.703 88.8533 61.264C88.4604 61.0218 87.0205 60.7189 86.6983 61.264C87.3074 61.4166 88.4517 61.1349 88.9876 61.6685C88.9156 62.1353 89.1877 62.9459 88.7187 63.0146C88.2689 62.933 86.7262 62.5375 86.6983 63.2845C87.6553 63.1261 89.2469 62.9215 89.1225 64.2271C88.6316 64.4783 87.2724 63.8962 86.9678 64.6309C88.0379 64.2971 89.8669 64.5448 89.2571 65.8427C88.6185 65.6365 87.6845 65.4164 87.237 65.9776C88.0119 66.0666 89.8287 65.7672 89.6613 67.1895C89.1219 67.593 87.7671 66.7243 87.5066 67.5933C88.703 67.5644 89.9899 67.4442 89.7959 68.8054C89.0332 68.7698 88.0032 68.426 87.6415 69.075C88.9195 68.6377 90.5011 69.3188 89.9308 70.6909C89.2902 70.6125 88.6885 70.4959 87.9104 70.556C88.6471 71.0777 90.937 70.76 90.0651 72.4415C89.4435 72.2545 88.9738 71.9169 88.0453 72.037C88.6108 72.6561 90.7774 72.3336 90.0651 73.7876C89.4159 73.7192 89.0201 73.3963 88.1803 73.5187C88.5019 74.0938 89.8891 73.6048 90.0651 74.3264C90.0449 75.3759 89.5023 75.6963 88.719 75.6731C89.0207 75.8643 89.606 75.7734 89.6616 76.2119C88.5022 84.3887 85.4643 90.6878 78.8883 93.4487C79.6304 93.7058 80.3526 92.8743 81.3126 92.91C84.4022 90.5413 87.3594 86.9916 88.7193 82.81C89.6825 79.846 89.7053 76.1229 90.7388 73.3835C90.9422 75.6121 90.5065 76.839 90.335 78.9047C89.4791 81.3043 89.145 83.9017 88.0457 85.9077C87.1378 87.5651 86.376 89.2164 85.0826 90.7556C83.5836 92.5402 80.6614 93.9881 78.6191 94.9301C76.8817 95.7307 74.8564 95.6847 74.0404 97.3537C75.0717 96.7626 76.0284 96.1021 77.1377 95.7381C78.4356 95.3118 79.2394 94.8395 80.37 94.257C80.5113 94.1828 80.7651 94.3287 80.9078 94.2564ZM89.2571 60.1856C89.7333 60.2733 89.1727 60.9868 89.5264 61.3977C88.9802 61.4501 89.3783 60.5589 89.2571 60.1856ZM89.3921 61.5323C89.9806 63.9572 90.0201 66.3587 90.3347 69.2083C89.919 66.83 89.1778 64.0954 89.3921 61.5323Z" fill="black"/>
<path d="M51.2804 72.7088C51.025 73.3963 50.5518 73.8657 50.2032 74.4597C50.7009 74.1025 51.6236 73.4596 51.2804 72.7088Z" fill="white"/>
<path d="M83.4664 77.558C82.2269 77.8189 83.3658 79.4965 83.3314 80.2512C83.7263 80.575 83.9904 81.0293 84.1397 81.5973C83.9663 81.7829 83.5547 81.7309 83.1971 81.7322C83.0625 82.455 83.8246 82.9842 83.4664 83.4828C82.7194 83.3771 82.6789 82.5646 81.8504 82.5402C81.8465 82.9922 82.0358 83.2527 82.2546 83.4828C82.2847 83.228 82.1026 83.1859 82.1203 82.944C83.0686 83.1361 83.3822 84.6191 84.5439 84.1561C84.2988 83.3687 83.6244 83.0108 83.6013 82.0014C84.1153 82.066 84.461 81.9632 84.6785 81.7319C84.1809 80.434 83.3141 79.5055 83.4664 77.558Z" fill="black"/>
<path d="M69.4608 79.0377C71.7415 80.1689 73.1881 82.1338 74.4433 84.2895C73.9338 82.0159 71.7103 79.5723 69.4608 79.0377Z" fill="black"/>
<path d="M24.0792 92.3706C23.5015 92.5145 23.0363 93.478 23.002 93.7173C23.3669 93.2743 24.0355 93.1352 24.0792 92.3706Z" fill="white"/>
<path d="M93.5663 25.0385C93.1291 25.5949 92.3134 26.3537 92.0853 26.9237C91.9304 27.3105 92.1752 27.7172 92.0853 28.1355C91.8536 29.213 90.6531 30.5549 89.1226 30.9636C89.3789 31.6495 89.9206 32.0504 90.8731 32.0408C90.4189 32.6271 91.328 32.7806 91.277 33.3875C91.5918 33.429 91.8337 33.6513 92.0853 33.3875C92.9045 34.6331 94.6882 34.9142 95.9906 35.6769C95.7654 34.325 96.511 32.8282 95.8556 31.9065C96.157 29.8192 96.5001 25.5721 95.1823 23.4225C94.507 23.8305 94.0286 24.4496 93.5663 25.0385Z" fill="white"/>
<path d="M54.7829 42.8141C51.93 43.6799 48.8009 45.8533 46.5684 47.662C45.5118 48.5178 44.0378 49.8376 44.2791 50.4898C43.7307 50.7497 43.1781 51.0051 43.0673 51.7019C43.3622 52.1016 43.864 51.1529 44.1445 51.5673C42.9735 52.2365 41.8069 52.9105 41.3164 54.2605C42.7042 53.9427 43.2436 52.7759 44.6829 52.5099C42.949 53.8733 40.7432 54.7648 39.9696 57.0886C41.1101 56.4778 42.2333 55.1333 43.2019 54.7992C41.5229 56.2623 39.5568 57.4387 38.8924 59.9167C39.6548 59.7361 39.729 58.8671 40.5084 58.7045C39.6686 59.8852 38.3113 60.5473 38.2194 62.4749C39.7325 61.2056 40.8425 59.5324 42.6634 58.5699C40.7789 60.5479 38.0369 62.3798 37.546 65.303C38.7356 64.2033 39.6111 62.7897 40.9125 61.8025C39.3936 63.6944 37.36 65.0733 37.1418 68.266C38.3726 66.9826 39.3685 64.7472 40.7776 64.0912C39.4617 65.9658 37.217 67.6187 37.2765 70.4204C38.4491 68.8996 39.4328 66.4724 40.9125 65.7075C39.8623 67.3912 36.3165 70.7182 38.2194 72.8447C38.8876 70.1467 40.3237 68.2156 41.9897 66.5155C43.4133 55.7736 48.0877 48.2836 54.7829 42.8141Z" fill="white"/>
</g>
<defs>
<clipPath id="clip0_644_2224">
<rect width="97.9677" height="113" fill="white"/>
</clipPath>
</defs>
</svg>
