<svg width="110" height="113" viewBox="0 0 110 113" fill="none" xmlns="http://www.w3.org/2000/svg">
<g clip-path="url(#clip0_644_2354)">
<path d="M69.0251 68.1496L64.2703 69.7255" stroke="white" stroke-width="5.66929" stroke-linecap="round" stroke-linejoin="round"/>
<path d="M63.9957 69.6714L56.7592 66.9557C56.0615 66.6533 55.3221 66.4579 54.5661 66.376C53.1889 66.2975 51.8798 66.9743 50.7586 67.778C48.8781 69.1261 47.2743 70.9288 46.4376 73.086C46.0946 73.8673 45.9669 74.7262 46.0677 75.5735C46.2075 76.4104 46.7472 77.2177 47.5506 77.4905C48.8051 77.9165 50.1066 76.9481 50.8902 75.8799C51.6738 74.8116 52.2803 73.5291 53.4292 72.8696" stroke="white" stroke-width="5.66929" stroke-linecap="round" stroke-linejoin="round"/>
<path d="M68.0785 65.8561L76.0618 86.0989C79.0935 85.208 81.9992 83.9343 84.7087 82.3084C81.3872 75.9275 78.7188 69.2274 76.744 62.3101C74.0148 63.7495 71.1374 64.8884 68.1624 65.7068" stroke="white" stroke-width="5.66929" stroke-linecap="round" stroke-linejoin="round"/>
<path d="M78.6925 78.5872C78.4235 78.5911 78.1653 78.6937 77.9671 78.8756C77.7689 79.0574 77.6444 79.3058 77.6175 79.5735C77.6144 79.7064 77.6376 79.8387 77.6857 79.9626C77.7338 80.0866 77.8059 80.1999 77.8979 80.2959C77.9899 80.3919 78.0999 80.4689 78.2217 80.5223C78.3434 80.5758 78.4746 80.6046 78.6075 80.6073C78.7396 80.5971 78.868 80.559 78.9843 80.4955C79.1006 80.4321 79.2021 80.3447 79.2821 80.2391C79.3622 80.1336 79.419 80.0123 79.4487 79.8832C79.4785 79.7541 79.4806 79.6202 79.4548 79.4902C79.4138 79.3649 79.3451 79.2505 79.2536 79.1556C79.1622 79.0606 79.0505 78.9875 78.9269 78.9418C78.8032 78.8961 78.6708 78.8789 78.5396 78.8916C78.4084 78.9043 78.2817 78.9464 78.1691 79.015" stroke="white" stroke-width="5.66929" stroke-linecap="round" stroke-linejoin="round"/>
<path d="M53.2076 72.5332C57.0809 74.107 60.8526 75.9199 64.5011 77.9614" stroke="white" stroke-width="5.66929" stroke-linecap="round" stroke-linejoin="round"/>
<path d="M64.5871 78.2536C66.7324 80.0438 68.7529 81.9784 70.6347 84.0438C71.1857 84.6486 71.7392 85.29 71.9799 86.072C72.1199 86.5377 72.1408 87.0312 72.0405 87.5071C71.9402 87.983 71.722 88.426 71.406 88.7957C71.0815 89.158 70.6674 89.4286 70.2052 89.5803C69.7431 89.732 69.2492 89.7595 68.7731 89.6601C67.9077 89.4643 67.2038 88.856 66.5391 88.2684L61.2201 83.566" stroke="white" stroke-width="5.66929" stroke-linecap="round" stroke-linejoin="round"/>
<path d="M57.3621 87.1233L61.8543 91.1262C62.4439 91.6516 63.0586 92.1915 63.8133 92.424C64.2816 92.5683 64.7799 92.5853 65.257 92.4734C65.7342 92.3615 66.1729 92.1246 66.5282 91.7871C66.8835 91.4495 67.1426 91.0235 67.2788 90.5528C67.4151 90.0821 67.4236 89.5835 67.3035 89.1084" stroke="white" stroke-width="5.66929" stroke-linecap="round" stroke-linejoin="round"/>
<path d="M53.7798 91.2113C54.4716 91.9187 55.1158 92.6743 55.8516 93.3359C56.5686 94.0239 57.4361 94.5354 58.3852 94.8297C58.8601 94.973 59.3603 95.0128 59.8519 94.9463C60.3435 94.8798 60.8151 94.7086 61.2349 94.4443C62.0501 93.8835 62.5252 92.8014 62.2304 91.8569" stroke="white" stroke-width="5.66929" stroke-linecap="round" stroke-linejoin="round"/>
<path d="M49.7798 95.5857C50.7731 96.1472 51.7107 96.8175 52.7637 97.257C53.8167 97.6965 55.0378 97.8863 56.0926 97.4513C57.1475 97.0163 57.9301 95.8199 57.6211 94.7215" stroke="white" stroke-width="5.66929" stroke-linecap="round" stroke-linejoin="round"/>
<path d="M38.06 69.5397C39.0123 70.6081 40.7466 70.5308 42.0445 69.9276C43.3424 69.3244 44.4121 68.3126 45.6904 67.6689C46.9687 67.0252 48.6696 66.8339 49.7182 67.808" stroke="white" stroke-width="5.66929" stroke-linecap="round" stroke-linejoin="round"/>
<path d="M39.1336 87.4034C38.4626 86.7718 37.6166 86.3573 36.7064 86.214C36.2511 86.1096 35.7731 86.182 35.3691 86.4166C34.8349 86.7887 34.7193 87.5584 34.8997 88.184C35.0636 88.7099 35.3894 89.1706 35.8306 89.5005C36.2717 89.8304 36.8058 90.0126 37.3566 90.0211" stroke="white" stroke-width="5.66929" stroke-linecap="round" stroke-linejoin="round"/>
<path d="M43.0784 89.7191C43.0279 89.1583 42.8253 88.6219 42.4923 88.1679C42.3237 87.9434 42.1023 87.764 41.8477 87.6455C41.5932 87.527 41.3134 87.4731 41.033 87.4884C40.2576 87.5692 39.7149 88.2667 39.2676 88.9053L38.2377 90.3761C38.0614 90.5887 37.9406 90.8418 37.8862 91.1127C37.84 91.5197 38.0966 91.8992 38.3853 92.1898C38.9709 92.7765 39.723 93.1685 40.5393 93.3126" stroke="white" stroke-width="5.66929" stroke-linecap="round" stroke-linejoin="round"/>
<path d="M44.4637 88.4785L41.5025 91.9634C41.1976 92.3221 40.8789 92.7123 40.8327 93.1808C40.7576 93.9428 41.4144 94.5628 42.0391 95.0055C42.5297 95.3531 43.1203 95.6896 43.7008 95.533C44.1539 95.4107 44.4741 95.0184 44.7624 94.648L46.506 92.4078C46.9881 91.7882 47.4916 91.1136 47.5269 90.3293C47.5326 89.9195 47.4178 89.517 47.1969 89.1718C46.9759 88.8266 46.6585 88.5538 46.2839 88.3874C45.9049 88.2316 45.4924 88.175 45.0855 88.2231C44.6785 88.2711 44.2905 88.4221 43.9582 88.6618" stroke="white" stroke-width="5.66929" stroke-linecap="round" stroke-linejoin="round"/>
<path d="M44.7611 95.4218C44.8389 95.8242 45.0354 96.194 45.3253 96.4837C45.6152 96.7733 45.9851 96.9696 46.3876 97.047C46.7916 97.114 47.2055 97.0892 47.5987 96.9745C47.9918 96.8597 48.3541 96.6579 48.6586 96.3841C49.2647 95.8281 49.6908 95.1036 49.882 94.3036C50.078 93.563 50.0947 92.7027 49.6134 92.1067C49.4597 91.9162 49.2635 91.7643 49.0407 91.663C48.8178 91.5617 48.5744 91.5139 48.3298 91.5233C48.0851 91.5328 47.8461 91.5992 47.6317 91.7173C47.4173 91.8354 47.2334 92.002 47.0948 92.2037" stroke="white" stroke-width="5.66929" stroke-linecap="round" stroke-linejoin="round"/>
<path d="M31.115 83.9502C32.1855 84.811 33.3351 85.5687 34.5483 86.213" stroke="white" stroke-width="5.66929" stroke-linecap="round" stroke-linejoin="round"/>
<path d="M30.7756 62.3226L21.1288 81.7331L29.5839 85.9222L39.0822 66.3851C36.2725 65.2836 33.5115 64.0673 30.7992 62.7362" stroke="white" stroke-width="5.66929" stroke-linecap="round" stroke-linejoin="round"/>
<path d="M27.3695 78.8781L27.0008 79.2984C26.9172 79.3909 26.862 79.5055 26.8417 79.6285C26.8214 79.7516 26.8369 79.8778 26.8864 79.9923C26.9358 80.1067 27.0171 80.2046 27.1206 80.2741C27.2242 80.3436 27.3455 80.3819 27.4701 80.3844C27.5055 80.3831 27.5407 80.379 27.5755 80.3723C27.6807 80.3518 27.7806 80.3102 27.8693 80.2499C27.9579 80.1897 28.0334 80.112 28.0911 80.0217C28.1488 79.9314 28.1875 79.8303 28.205 79.7245C28.2224 79.6187 28.2181 79.5106 28.1925 79.4065C28.1668 79.3024 28.1203 79.2046 28.0557 79.1191C27.9911 79.0336 27.9097 78.9621 27.8167 78.909C27.7236 78.8558 27.6207 78.8222 27.5142 78.81C27.4077 78.7979 27.2998 78.8075 27.1972 78.8383" stroke="white" stroke-width="5.66929" stroke-linecap="round" stroke-linejoin="round"/>
<path d="M71.5317 84.5675L74.4983 83.2441" stroke="white" stroke-width="5.66929" stroke-linecap="round" stroke-linejoin="round"/>
<path d="M76.9203 63.0733L75.7985 59.8148C84.9075 54.5803 94.3915 50.0274 104.173 46.1932" stroke="white" stroke-width="5.66929" stroke-linecap="round" stroke-linejoin="round"/>
<path d="M84.312 82.5469L86.0142 85.8327L107.124 78.2409" stroke="white" stroke-width="5.66929" stroke-linecap="round" stroke-linejoin="round"/>
<path d="M30.5786 62.1614L31.9499 60.1209C25.5832 54.0154 11.2099 45.3705 3.27179 41.5235" stroke="white" stroke-width="5.66929" stroke-linecap="round" stroke-linejoin="round"/>
<path d="M21.5188 81.0364C20.6448 82.4098 20.1274 83.9619 19.0926 84.9966C13.1428 82.6685 7.45172 79.5642 1.44678 76.7585" stroke="white" stroke-width="5.66929" stroke-linecap="round" stroke-linejoin="round"/>
<path d="M74.118 63.268L74.6061 58.1884C74.808 58.6718 75.1435 59.0878 75.5733 59.3875" stroke="white" stroke-width="5.66929" stroke-linecap="round" stroke-linejoin="round"/>
<path d="M57.5145 97.4049C57.0025 98.3548 57.4559 99.618 58.3212 100.263C59.1866 100.907 60.3439 101.031 61.4147 100.898C62.3824 100.778 63.3684 100.439 64.022 99.7151C64.8238 98.8272 64.983 97.5345 64.9373 96.339C64.8916 95.1436 64.681 93.9369 64.895 92.7599" stroke="white" stroke-width="5.66929" stroke-linecap="round" stroke-linejoin="round"/>
<path d="M67.4835 91.5661C67.1959 92.9288 66.911 94.3088 66.9626 95.7006C67.0141 97.0924 67.4364 98.5187 68.3957 99.5285C69.3549 100.538 70.9147 101.036 72.2032 100.507C73.2704 100.069 73.9906 99.0206 74.3176 97.9143C74.6446 96.8081 74.6351 95.6343 74.6228 94.4808C74.5887 91.259 74.5545 88.0372 74.5204 84.8153" stroke="white" stroke-width="5.66929" stroke-linecap="round" stroke-linejoin="round"/>
<path d="M77.1416 86.5153C76.6824 87.4489 77.2492 88.6461 78.1544 89.159C79.0597 89.6718 80.1799 89.6351 81.1936 89.4009C81.8721 89.2442 82.5657 88.9829 83.0088 88.4457C83.5455 87.795 83.6057 86.8816 83.5775 86.0387C83.5494 85.1958 83.4627 84.3187 83.7806 83.5375" stroke="white" stroke-width="5.66929" stroke-linecap="round" stroke-linejoin="round"/>
<path d="M86.9576 86.0695C86.8362 86.4389 86.8165 86.8343 86.9006 87.2139C86.9846 87.5936 87.1693 87.9437 87.4353 88.2274C87.9779 88.7886 88.6761 89.1746 89.4399 89.3356C90.1719 89.5571 90.9556 89.5392 91.6768 89.2846C92.6797 88.8698 93.3011 87.8143 93.4904 86.7456C93.6796 85.677 93.5076 84.5811 93.3355 83.5096" stroke="white" stroke-width="5.66929" stroke-linecap="round" stroke-linejoin="round"/>
<path d="M29.2389 86.2054C29.0335 89.564 28.8284 92.9405 29.1724 96.2877C29.2992 97.5214 29.5537 98.8502 30.4764 99.6789C31.6789 100.759 33.6808 100.536 34.9153 99.4931C36.1498 98.45 36.718 96.7988 36.8713 95.1899C37.0246 93.581 36.819 91.9621 36.7864 90.3463" stroke="white" stroke-width="5.66929" stroke-linecap="round" stroke-linejoin="round"/>
<path d="M39.6753 93.4C39.5363 94.409 39.4978 95.4292 39.5604 96.4458C39.6256 97.4686 39.9939 98.4489 40.6182 99.2617C40.934 99.6628 41.3431 99.9806 41.8098 100.187C42.2765 100.394 42.7867 100.484 43.296 100.449C43.6713 100.406 44.0326 100.281 44.354 100.082C44.6753 99.8838 44.9487 99.6166 45.1547 99.3C45.3607 98.9833 45.4941 98.625 45.5453 98.2508C45.5966 97.8765 45.5645 97.4955 45.4512 97.1352" stroke="white" stroke-width="5.66929" stroke-linecap="round" stroke-linejoin="round"/>
</g>
<defs>
<clipPath id="clip0_644_2354">
<rect width="109.228" height="113" fill="white"/>
</clipPath>
</defs>
</svg>
