<svg width="25" height="25" viewBox="0 0 25 25" xmlns="http://www.w3.org/2000/svg">
  <path
    d="M24.6582 12.5492C24.6582 14.2973 24.6631 16.0453 24.6582 17.7982C24.6484 20.3373 23.4668 22.2172 21.3574 23.5453C20.122 24.3168 18.75 24.6586 17.2949 24.6586C14.1113 24.6586 10.9326 24.6732 7.749 24.6537C5.53708 24.6391 3.63279 23.8578 2.124 22.2172C1.19138 21.2016 0.634738 20.0053 0.473606 18.6234C0.439426 18.3305 0.434543 18.0424 0.434543 17.7494C0.434543 14.268 0.42966 10.7865 0.434543 7.30508C0.449192 4.76113 1.63083 2.88125 3.74021 1.55313C4.98532 0.776758 6.36228 0.439844 7.82712 0.439844C11.0009 0.439844 14.1748 0.425195 17.3486 0.444727C19.5703 0.459375 21.4795 1.24551 22.9883 2.8959C23.9111 3.90664 24.4629 5.10293 24.6191 6.47012C24.6826 7.00723 24.6533 7.54434 24.6582 8.07656C24.6631 9.5707 24.6582 11.06 24.6582 12.5492ZM2.24607 12.5492C2.24607 14.3412 2.24118 16.1283 2.24607 17.9203C2.25095 19.1508 2.70017 20.2104 3.54001 21.0893C4.66794 22.266 6.07419 22.8373 7.6904 22.8471C10.8984 22.8666 14.1015 22.852 17.3095 22.852C18.3447 22.852 19.331 22.6273 20.2295 22.1098C21.9092 21.1479 22.8564 19.7318 22.8564 17.7494C22.8564 14.224 22.8564 10.7035 22.8564 7.17813C22.8564 5.95742 22.4121 4.90273 21.5771 4.02871C20.459 2.84707 19.0478 2.26602 17.4365 2.25625C14.1943 2.23184 10.957 2.24648 7.71482 2.24648C6.70407 2.24648 5.74704 2.48574 4.86814 2.98379C3.19333 3.95059 2.24118 5.3666 2.24607 7.34902C2.24607 9.08242 2.24607 10.8158 2.24607 12.5492Z" />
  <path
    d="M12.5635 17.7246C9.40919 17.7246 6.87989 15.2051 6.88477 12.0606C6.88966 8.99903 9.45313 6.48926 12.583 6.49415C15.7275 6.49415 18.2666 9.01856 18.2617 12.1338C18.2568 15.2197 15.7031 17.7246 12.5635 17.7246ZM12.5635 15.918C14.707 15.918 16.4551 14.2139 16.4551 12.1191C16.4551 10.0147 14.7217 8.30079 12.583 8.30079C10.4395 8.30079 8.69141 10.0049 8.69141 12.0996C8.69141 14.2041 10.4248 15.918 12.5635 15.918Z" />
  <path
    d="M17.7246 6.03516C17.7246 5.3418 18.2568 4.78516 18.9209 4.78516C19.585 4.78516 20.1172 5.34668 20.1172 6.03516C20.1172 6.71387 19.585 7.27051 18.9307 7.27539C18.2666 7.28028 17.7246 6.72852 17.7246 6.03516Z" />
</svg>