<svg width="75" height="100" viewBox="0 0 75 100" fill="none" xmlns="http://www.w3.org/2000/svg">
<g clip-path="url(#clip0_644_2346)">
<path d="M50.8411 16.8686C57.7129 28.7709 53.6349 43.99 41.7326 50.8618C29.8302 57.7336 14.6111 53.6556 7.73933 41.7532C0.867565 29.8509 4.94558 14.6318 16.8479 7.76C28.7502 0.888242 43.9694 4.96625 50.8411 16.8686Z" fill="#CCCCCC"/>
<path d="M14.6416 3.93828C0.630613 12.0274 -4.17548 29.9638 3.9137 43.9747C11.0971 56.4168 26.0441 61.5963 39.1136 56.9363C40.1419 58.9222 60.7804 98.7849 60.8141 98.8433C61.8253 100.595 65.5404 100.345 69.1112 98.2834C72.682 96.2218 74.7558 93.1293 73.7447 91.3779L48.3027 51.631C58.8732 42.6427 61.8612 27.1083 54.6779 14.6663C46.5887 0.655295 28.6525 -4.1509 14.6416 3.93828ZM16.8535 7.76955C28.7496 0.901388 43.9786 4.98203 50.8468 16.8781C57.7149 28.7742 53.6343 44.0032 41.7382 50.8714C29.8421 57.7395 14.6131 53.6589 7.74497 41.7628C0.876803 29.8667 4.95744 14.6377 16.8535 7.76955Z" fill="white"/>
<path d="M16.8534 7.76956C6.02148 14.0233 1.67644 27.1918 6.16995 38.4819C10.4017 38.4876 14.6956 37.4309 18.6217 35.1642C29.4536 28.9104 33.7901 15.7271 29.2966 4.43693C25.0649 4.43122 20.7795 5.50284 16.8534 7.76956Z" fill="#F2F2F2"/>
</g>
<defs>
<clipPath id="clip0_644_2346">
<rect width="74.0162" height="100" fill="white"/>
</clipPath>
</defs>
</svg>
