<svg width="82" height="82" viewBox="0 0 82 82" xmlns="http://www.w3.org/2000/svg" stroke="var(--accent-color)"
  fill="none">
  <path d=" M12.2592 21.4349C11.4693 21.4349 10.8381 22.4309 10.8334 23.6681L10.7585 43.6613C10.7517 44.8984 11.3945
  45.9031 12.1843 45.8943L25.6875 45.7446C26.8657 46.6402 25.2185 52.4349 20.9088 54.6673C17.2492 56.5629 20.7417
  60.3418 20.5637 60.9827C26.5766 59.5082 28.821 57.1804 30.3749 56.0593C32.844 54.0427 36.6913 48.7759 37.6515
  44.8564C37.7928 44.5097 37.7547 44.1047 37.7564 43.6612L37.8312 23.668C37.838 22.4309 37.1953 21.4348 36.4053
  21.4348L12.2592 21.4349Z" stroke-width="1.74109" stroke-linecap="round" stroke-linejoin="round" />
  <path
    d="M46.0949 21.4349C45.305 21.4349 44.6737 22.4309 44.6691 23.6681L44.5942 43.6613C44.5874 44.8984 45.2302 45.9031 46.02 45.8943L59.5232 45.7446C60.7014 46.6402 59.0542 52.4349 54.7445 54.6673C51.0849 56.5629 54.5773 60.3418 54.3994 60.9827C60.4122 59.5082 62.6567 57.1804 64.2106 56.0593C66.6796 54.0427 70.527 48.7759 71.4872 44.8564C71.6285 44.5097 71.5903 44.1047 71.592 43.6612L71.6669 23.668C71.6737 22.4309 71.031 21.4348 70.241 21.4348L46.0949 21.4349Z"
    stroke-width="1.74109" stroke-linecap="round" stroke-linejoin="round" />
</svg>