<svg width="25" height="25" viewBox="0 0 25 25" xmlns="http://www.w3.org/2000/svg">
  <path
    d="M1.56263 5.42969C2.38294 5.42969 3.63294 5.42969 4.33606 5.42969C4.68763 5.42969 4.96106 5.66406 5.07825 5.97656C5.42981 6.99219 6.21106 9.21875 7.1095 10.7422C8.32044 12.7344 9.10169 13.4766 9.6095 13.3984C10.1173 13.2812 9.96106 11.9531 9.96106 10.8984C9.96106 9.84375 10.0783 8.04688 9.57044 7.22656L8.78919 6.09375C8.59388 5.82031 8.78919 5.46875 9.10169 5.46875H13.5548C13.9845 5.46875 14.3361 5.82031 14.3361 6.25V11.9141C14.3361 11.9141 14.5314 12.9297 15.6251 11.875C16.7189 10.8203 17.8908 8.86719 18.8673 6.875L19.2579 5.9375C19.3751 5.66406 19.6486 5.46875 19.9611 5.46875H22.8517C23.3986 5.46875 23.7892 6.01563 23.5939 6.52344L23.2814 7.34375C23.2814 7.34375 22.2267 9.45312 21.1329 10.9375C20.0392 12.4609 19.8048 12.8125 19.9611 13.2031C20.1173 13.5937 22.9298 16.2109 23.6329 17.4609C23.8283 17.8125 23.9845 18.125 24.1408 18.3984C24.4142 18.9062 24.0236 19.5703 23.4376 19.5703H20.1564C19.8829 19.5703 19.6095 19.4141 19.4923 19.1797L19.1798 18.6719C19.1798 18.6719 17.1876 16.3281 15.9767 15.5859C14.7267 14.8828 14.7658 15.8984 14.7658 15.8984V17.9687C14.7658 18.8281 14.0626 19.5312 13.2033 19.5312H12.422C12.422 19.5312 8.12513 19.5312 4.68763 14.4141C1.99231 10.4297 1.09388 7.85156 0.781376 6.36719C0.703251 5.89844 1.05481 5.42969 1.56263 5.42969Z"
    fill="#F24738" fill-opacity="0.75" />
</svg>