<svg data-testid="svg-symbol" xmlns="http://www.w3.org/2000/svg" xmlns:xlink="http://www.w3.org/1999/xlink" 
  viewBox="0 0 30 30">
  <g opacity="1">
    <path fill-rule="evenodd" clip-rule="evenodd"
      d="M24 21.8237C24 22.847 24 23.3587 23.7885 23.6299C23.6043 23.8659 23.3242 24.007 23.025 24.0145C22.6811 24.0231 22.27 23.7185 21.4476 23.1094L15.9524 19.0388C15.6105 18.7856 15.4396 18.659 15.2523 18.6101C15.0869 18.567 14.9131 18.567 14.7477 18.6101C14.5604 18.659 14.3895 18.7856 14.0476 19.0388L8.55236 23.1094C7.73003 23.7185 7.31886 24.0231 6.97505 24.0145C6.67581 24.007 6.39566 23.8659 6.21155 23.6299C6 23.3587 6 22.847 6 21.8237V6.6C6 6.03995 6 5.75992 6.10899 5.54601C6.20487 5.35785 6.35785 5.20487 6.54601 5.10899C6.75992 5 7.03995 5 7.6 5H22.4C22.9601 5 23.2401 5 23.454 5.10899C23.6422 5.20487 23.7951 5.35785 23.891 5.54601C24 5.75992 24 6.03995 24 6.6V21.8237Z"
      stroke="currentColor" stroke-width="2" stroke-linecap="round" stroke-linejoin="round"></path>
  </g>
</svg>